0
SECTION
2
HEADER
9
$INSUNITS
70
4
9
$ACADVER
1
AC1014
9
$HANDSEED
5
FFFF
0
ENDSEC
0
SECTION
2
TABLES
0
TABLE
2
VPORT
5
8
100
AcDbSymbolTable
0
ENDTAB
0
TABLE
2
LTYPE
5
5
100
AcDbSymbolTable
0
LTYPE
5
14
100
AcDbSymbolTableRecord
100
AcDbLinetypeTableRecord
2
BYBLOCK
70
0
0
LTYPE
5
15
100
AcDbSymbolTableRecord
100
AcDbLinetypeTableRecord
2
BYLAYER
70
0
0
ENDTAB
0
TABLE
2
LAYER
5
2
100
AcDbSymbolTable
70
2
0
LAYER
5
50
100
AcDbSymbolTableRecord
100
AcDbLayerTableRecord
2
0
70
0
6
CONTINUOUS
0
ENDTAB
0
TABLE
2
STYLE
5
3
100
AcDbSymbolTable
70
1
0
STYLE
5
11
100
AcDbSymbolTableRecord
100
AcDbTextStyleTableRecord
2
STANDARD
70
0
0
ENDTAB
0
TABLE
2
VIEW
5
6
100
AcDbSymbolTable
70
0
0
ENDTAB
0
TABLE
2
UCS
5
7
100
AcDbSymbolTable
70
0
0
ENDTAB
0
TABLE
2
APPID
5
9
100
AcDbSymbolTable
70
2
0
APPID
5
12
100
AcDbSymbolTableRecord
100
AcDbRegAppTableRecord
2
ACAD
70
0
0
ENDTAB
0
TABLE
2
DIMSTYLE
5
A
100
AcDbSymbolTable
70
1
0
ENDTAB
0
TABLE
2
BLOCK_RECORD
5
1
100
AcDbSymbolTable
70
1
0
BLOCK_RECORD
5
1F
100
AcDbSymbolTableRecord
100
AcDbBlockTableRecord
2
*MODEL_SPACE
0
BLOCK_RECORD
5
1B
100
AcDbSymbolTableRecord
100
AcDbBlockTableRecord
2
*PAPER_SPACE
0
ENDTAB
0
ENDSEC
0
SECTION
2
BLOCKS
0
BLOCK
5
20
100
AcDbEntity
100
AcDbBlockBegin
2
*MODEL_SPACE
0
ENDBLK
5
21
100
AcDbEntity
100
AcDbBlockEnd
0
BLOCK
5
1C
100
AcDbEntity
100
AcDbBlockBegin
2
*PAPER_SPACE
0
ENDBLK
5
1D
100
AcDbEntity
100
AcDbBlockEnd
0
ENDSEC
0
SECTION
2
ENTITIES
0
CIRCLE
5
100
100
AcDbEntity
8
0
100
AcDbCircle
10
-19.999999999999808
20
255.00000000000043
30
0
40
2.9000000000000248
210
-0
220
0
230
1
0
CIRCLE
5
101
100
AcDbEntity
8
0
100
AcDbCircle
10
-80.999999999998309
20
255.00000000000057
30
0
40
2.900000000000027
210
-0
220
0
230
1
0
LINE
5
102
100
AcDbEntity
8
0
100
AcDbLine
10
-69.499999999999986
20
146.81556771076114
30
0
11
-69.499999999999986
21
124
31
0
0
LINE
5
103
100
AcDbEntity
8
0
100
AcDbLine
10
-69.499999999999986
20
124
30
0
11
-62.749999999999979
21
124
31
0
0
LINE
5
104
100
AcDbEntity
8
0
100
AcDbLine
10
-62.749999999999979
20
124
30
0
11
-62.749999999999979
21
118.99999999999999
31
0
0
LINE
5
105
100
AcDbEntity
8
0
100
AcDbLine
10
-62.749999999999979
20
118.99999999999999
30
0
11
-61.421572875253787
21
118.99999999999999
31
0
0
LINE
5
106
100
AcDbEntity
8
0
100
AcDbLine
10
-61.421572875253787
20
118.99999999999999
30
0
11
-59.499999999999972
21
117.07842712474618
31
0
0
LINE
5
107
100
AcDbEntity
8
0
100
AcDbLine
10
-59.499999999999972
20
117.07842712474618
30
0
11
-59.499999999999972
21
102.92157287525382
31
0
0
LINE
5
108
100
AcDbEntity
8
0
100
AcDbLine
10
-59.499999999999972
20
102.92157287525382
30
0
11
-61.421572875253787
21
101.00000000000001
31
0
0
LINE
5
109
100
AcDbEntity
8
0
100
AcDbLine
10
-61.421572875253787
20
101.00000000000001
30
0
11
-62.749999999999979
21
101.00000000000001
31
0
0
LINE
5
110
100
AcDbEntity
8
0
100
AcDbLine
10
-62.749999999999979
20
101.00000000000001
30
0
11
-62.749999999999979
21
96
31
0
0
LINE
5
111
100
AcDbEntity
8
0
100
AcDbLine
10
-62.749999999999979
20
96
30
0
11
-69.499999999999986
21
96
31
0
0
LINE
5
112
100
AcDbEntity
8
0
100
AcDbLine
10
-69.499999999999986
20
96
30
0
11
-69.499999999999986
21
73.184432289238856
31
0
0
LINE
5
113
100
AcDbEntity
8
0
100
AcDbLine
10
-69.499999999999986
20
73.184432289238856
30
0
11
-73.999999999999972
21
73.184432289238856
31
0
0
LINE
5
114
100
AcDbEntity
8
0
100
AcDbLine
10
-73.999999999999972
20
73.184432289238856
30
0
11
-73.999999999999972
21
58
31
0
0
LINE
5
115
100
AcDbEntity
8
0
100
AcDbLine
10
-73.999999999999972
20
58
30
0
11
-125.9999999999993
21
58.000000000000682
31
1.5330402357302324e-31
0
LINE
5
116
100
AcDbEntity
8
0
100
AcDbLine
10
-125.99999999999967
20
30.000000000000284
30
0
11
-115.99999999999702
21
30.000000000000107
31
0
0
LINE
5
117
100
AcDbEntity
8
0
100
AcDbLine
10
-115.99999999999702
20
30.000000000000107
30
0
11
-115.99999999999719
21
7.815970093361102e-13
31
0
0
LINE
5
118
100
AcDbEntity
8
0
100
AcDbLine
10
-95.999999999997186
20
6.3948846218409017e-13
30
0
11
-95.999999999997044
21
20.000000000000639
31
0
0
LINE
5
119
100
AcDbEntity
8
0
100
AcDbLine
10
-95.999999999997044
20
20.000000000000639
30
0
11
-30.000000000000036
21
20.000000000000213
31
0
0
LINE
5
120
100
AcDbEntity
8
0
100
AcDbLine
10
-30.000000000000036
20
20.000000000000213
30
0
11
-30.000000000000171
21
2.1316282072803006e-13
31
0
0
LINE
5
121
100
AcDbEntity
8
0
100
AcDbLine
10
-10.000000000000174
20
7.1054273576010044e-14
30
0
11
-9.9999999999999751
21
30.000000000000107
31
0
0
LINE
5
122
100
AcDbEntity
8
0
100
AcDbLine
10
-9.9999999999999751
20
30.000000000000107
30
0
11
2.55351295663786e-14
21
30.000000000000107
31
0
0
LINE
5
123
100
AcDbEntity
8
0
100
AcDbLine
10
2.55351295663786e-14
20
30.000000000000107
30
0
11
1.776356839400253e-14
21
138.00000000000003
31
0
0
LINE
5
124
100
AcDbEntity
8
0
100
AcDbLine
10
1.776356839400253e-14
20
235.00000000000017
30
0
11
-9.9999999999999805
21
235.00000000000017
31
0
0
LINE
5
125
100
AcDbEntity
8
0
100
AcDbLine
10
-9.9999999999999805
20
235.00000000000017
30
0
11
-9.9999999999997904
21
265.00000000000017
31
0
0
LINE
5
126
100
AcDbEntity
8
0
100
AcDbLine
10
-9.9999999999997904
20
265.00000000000017
30
0
11
-29.999999999999794
21
265.00000000000068
31
0
0
LINE
5
127
100
AcDbEntity
8
0
100
AcDbLine
10
-29.999999999999794
20
265.00000000000068
30
0
11
-29.999999999999932
21
245.00000000000068
31
0
0
LINE
5
128
100
AcDbEntity
8
0
100
AcDbLine
10
-29.999999999999932
20
245.00000000000068
30
0
11
-70.999999999997897
21
245.00000000000057
31
0
0
LINE
5
129
100
AcDbEntity
8
0
100
AcDbLine
10
-70.999999999997897
20
245.00000000000057
30
0
11
-70.999999999997883
21
265.00000000000063
31
0
0
LINE
5
130
100
AcDbEntity
8
0
100
AcDbLine
10
-70.999999999997883
20
265.00000000000063
30
0
11
-90.999999999997868
21
265.00000000000068
31
0
0
LINE
5
131
100
AcDbEntity
8
0
100
AcDbLine
10
-125.99999999999699
20
235.00000000000017
30
0
11
-125.9999999999973
21
211.90484461291197
31
0
0
LINE
5
132
100
AcDbEntity
8
0
100
AcDbLine
10
-125.99999999999795
20
162.00000000000063
30
0
11
-73.999999999999986
21
161.99999999999994
31
0
0
LINE
5
133
100
AcDbEntity
8
0
100
AcDbLine
10
-73.999999999999972
20
146.81556771076114
30
0
11
-69.499999999999986
21
146.81556771076114
31
0
0
LINE
5
134
100
AcDbEntity
8
0
100
AcDbLine
10
1.776356839400253e-14
20
138.00000000000003
30
0
11
-21.999999999999975
21
138.00000000000003
31
0
0
LINE
5
135
100
AcDbEntity
8
0
100
AcDbLine
10
-21.999999999999975
20
138.00000000000003
30
0
11
-21.999999999999975
21
162
31
0
0
LINE
5
136
100
AcDbEntity
8
0
100
AcDbLine
10
-21.999999999999975
20
162
30
0
11
1.7763568394002505e-14
21
162
31
0
0
LINE
5
137
100
AcDbEntity
8
0
100
AcDbLine
10
1.7763568394002505e-14
20
162
30
0
11
1.776356839400253e-14
21
235.00000000000017
31
0
0
LINE
5
138
100
AcDbEntity
8
0
100
AcDbLine
10
-125.9999999999973
20
211.90484461291197
30
0
11
-101.33962835365335
21
211.90484461291197
31
0
0
LINE
5
139
100
AcDbEntity
8
0
100
AcDbLine
10
-101.33962835365335
20
211.90484461291197
30
0
11
-125.99999999999764
21
185.70319973867115
31
0
0
CIRCLE
5
140
100
AcDbEntity
8
0
100
AcDbCircle
10
-20.000000000000156
20
10.000000000000135
30
0
40
2.8999999999999426
210
1.0644899600020253e-109
220
1.0947644252537633e-47
230
1
0
CIRCLE
5
141
100
AcDbEntity
8
0
100
AcDbCircle
10
-105.99999999999717
20
10.000000000000707
30
0
40
2.8999999999999382
210
1.0644899600020253e-109
220
1.0947644252537633e-47
230
1
0
LINE
5
142
100
AcDbEntity
8
0
100
AcDbLine
10
-30.000000000000171
20
2.1316282072803006e-13
30
0
11
-10.000000000000174
21
7.1054273576010044e-14
31
0
0
LINE
5
143
100
AcDbEntity
8
0
100
AcDbLine
10
-115.99999999999719
20
7.815970093361102e-13
30
0
11
-95.999999999997186
21
6.3948846218409017e-13
31
0
0
LINE
5
144
100
AcDbEntity
8
0
100
AcDbLine
10
-73.999999999999986
20
161.99999999999994
30
0
11
-73.999999999999972
21
146.81556771076114
31
0
0
LINE
5
145
100
AcDbEntity
8
0
100
AcDbLine
10
-90.999999999997868
20
265.00000000000068
30
0
11
-90.999999999997982
21
245.00000000000071
31
0
0
LINE
5
146
100
AcDbEntity
8
0
100
AcDbLine
10
-90.999999999997982
20
245.00000000000071
30
0
11
-115.99999999999798
21
245.00000000000085
31
0
0
LINE
5
147
100
AcDbEntity
8
0
100
AcDbLine
10
-115.99999999999798
20
245.00000000000085
30
0
11
-115.99999999999699
21
235.00000000000017
31
0
0
LINE
5
148
100
AcDbEntity
8
0
100
AcDbLine
10
-115.99999999999699
20
235.00000000000017
30
0
11
-125.99999999999699
21
235.00000000000017
31
0
0
LINE
5
149
100
AcDbEntity
8
0
100
AcDbLine
10
-125.99999999999764
20
185.70319973867115
30
0
11
-125.99999999999795
21
162.00000000000063
31
0
0
LINE
5
150
100
AcDbEntity
8
0
100
AcDbLine
10
-125.9999999999993
20
58.000000000000682
30
1.5330402357302324e-31
11
-125.99999999999967
21
30.000000000000284
31
0
0
ENDSEC
0
SECTION
2
OBJECTS
0
DICTIONARY
5
C
100
AcDbDictionary
3
ACAD_GROUP
350
D
3
ACAD_MLINESTYLE
350
17
0
DICTIONARY
5
D
100
AcDbDictionary
0
DICTIONARY
5
1A
330
C
100
AcDbDictionary
0
DICTIONARY
5
17
100
AcDbDictionary
0
ENDSEC
0
EOF
