0
SECTION
2
HEADER
9
$INSUNITS
70
4
9
$ACADVER
1
AC1014
9
$HANDSEED
5
FFFF
0
ENDSEC
0
SECTION
2
TABLES
0
TABLE
2
VPORT
5
8
100
AcDbSymbolTable
0
ENDTAB
0
TABLE
2
LTYPE
5
5
100
AcDbSymbolTable
0
LTYPE
5
14
100
AcDbSymbolTableRecord
100
AcDbLinetypeTableRecord
2
BYBLOCK
70
0
0
LTYPE
5
15
100
AcDbSymbolTableRecord
100
AcDbLinetypeTableRecord
2
BYLAYER
70
0
0
ENDTAB
0
TABLE
2
LAYER
5
2
100
AcDbSymbolTable
70
2
0
LAYER
5
50
100
AcDbSymbolTableRecord
100
AcDbLayerTableRecord
2
0
70
0
6
CONTINUOUS
0
ENDTAB
0
TABLE
2
STYLE
5
3
100
AcDbSymbolTable
70
1
0
STYLE
5
11
100
AcDbSymbolTableRecord
100
AcDbTextStyleTableRecord
2
STANDARD
70
0
0
ENDTAB
0
TABLE
2
VIEW
5
6
100
AcDbSymbolTable
70
0
0
ENDTAB
0
TABLE
2
UCS
5
7
100
AcDbSymbolTable
70
0
0
ENDTAB
0
TABLE
2
APPID
5
9
100
AcDbSymbolTable
70
2
0
APPID
5
12
100
AcDbSymbolTableRecord
100
AcDbRegAppTableRecord
2
ACAD
70
0
0
ENDTAB
0
TABLE
2
DIMSTYLE
5
A
100
AcDbSymbolTable
70
1
0
ENDTAB
0
TABLE
2
BLOCK_RECORD
5
1
100
AcDbSymbolTable
70
1
0
BLOCK_RECORD
5
1F
100
AcDbSymbolTableRecord
100
AcDbBlockTableRecord
2
*MODEL_SPACE
0
BLOCK_RECORD
5
1B
100
AcDbSymbolTableRecord
100
AcDbBlockTableRecord
2
*PAPER_SPACE
0
ENDTAB
0
ENDSEC
0
SECTION
2
BLOCKS
0
BLOCK
5
20
100
AcDbEntity
100
AcDbBlockBegin
2
*MODEL_SPACE
0
ENDBLK
5
21
100
AcDbEntity
100
AcDbBlockEnd
0
BLOCK
5
1C
100
AcDbEntity
100
AcDbBlockBegin
2
*PAPER_SPACE
0
ENDBLK
5
1D
100
AcDbEntity
100
AcDbBlockEnd
0
ENDSEC
0
SECTION
2
ENTITIES
0
CIRCLE
5
100
100
AcDbEntity
8
0
100
AcDbCircle
10
409.35289149572696
20
255
30
0
40
2.8999999999999915
210
0
220
0
230
1
0
CIRCLE
5
101
100
AcDbEntity
8
0
100
AcDbCircle
10
470.35289149572532
20
254.99999999999986
30
0
40
2.8999999999999915
210
0
220
0
230
1
0
CIRCLE
5
102
100
AcDbEntity
8
0
100
AcDbCircle
10
384.35289149572827
20
10.0000000000007
30
0
40
2.8999999999999204
210
0
220
0
230
1
0
LINE
5
103
100
AcDbEntity
8
0
100
AcDbLine
10
440.35289149572498
20
20.000000000000323
30
0
11
440.35289149572526
21
70.000000000000313
31
0
0
LINE
5
104
100
AcDbEntity
8
0
100
AcDbLine
10
440.35289149572526
20
70.000000000000313
30
0
11
490.35289149572515
21
70.000000000000341
31
0
0
LINE
5
105
100
AcDbEntity
8
0
100
AcDbLine
10
490.35289149572515
20
70.000000000000341
30
0
11
490.35289149572515
21
137.99999999999972
31
0
0
LINE
5
106
100
AcDbEntity
8
0
100
AcDbLine
10
490.35289149572515
20
137.99999999999972
30
0
11
468.3528914957252
21
137.99999999999974
31
0
0
LINE
5
107
100
AcDbEntity
8
0
100
AcDbLine
10
468.3528914957252
20
137.99999999999974
30
0
11
468.3528914957252
21
161.99999999999963
31
1.9721522630525295e-30
0
LINE
5
108
100
AcDbEntity
8
0
100
AcDbLine
10
468.3528914957252
20
161.99999999999963
30
1.9721522630525295e-30
11
490.35289149572515
21
161.99999999999963
31
0
0
LINE
5
109
100
AcDbEntity
8
0
100
AcDbLine
10
490.35289149572515
20
161.99999999999963
30
0
11
490.35289149572509
21
234.99999999999969
31
0
0
LINE
5
110
100
AcDbEntity
8
0
100
AcDbLine
10
490.35289149572509
20
234.99999999999969
30
0
11
480.35289149572509
21
234.99999999999969
31
0
0
LINE
5
111
100
AcDbEntity
8
0
100
AcDbLine
10
480.35289149572509
20
234.99999999999969
30
0
11
480.35289149572532
21
264.9999999999996
31
0
0
LINE
5
112
100
AcDbEntity
8
0
100
AcDbLine
10
480.35289149572532
20
264.9999999999996
30
0
11
460.35289149572532
21
265.00000000000011
31
0
0
LINE
5
113
100
AcDbEntity
8
0
100
AcDbLine
10
460.35289149572532
20
265.00000000000011
30
0
11
460.3528914957252
21
245.00000000000014
31
0
0
LINE
5
114
100
AcDbEntity
8
0
100
AcDbLine
10
460.3528914957252
20
245.00000000000014
30
0
11
419.35289149572731
21
245.00000000000003
31
0
0
LINE
5
115
100
AcDbEntity
8
0
100
AcDbLine
10
419.35289149572731
20
245.00000000000003
30
0
11
419.35289149572736
21
265.00000000000006
31
0
0
LINE
5
116
100
AcDbEntity
8
0
100
AcDbLine
10
419.35289149572736
20
265.00000000000006
30
0
11
399.35289149572748
21
265.00000000000011
31
0
0
LINE
5
117
100
AcDbEntity
8
0
100
AcDbLine
10
364.3528914957281
20
211.90484461291149
30
0
11
389.01326314207205
21
211.90484461291149
31
0
0
LINE
5
118
100
AcDbEntity
8
0
100
AcDbLine
10
364.35289149572839
20
234.99999999999966
30
0
11
364.3528914957281
21
211.90484461291149
31
0
0
LINE
5
119
100
AcDbEntity
8
0
100
AcDbLine
10
364.35289149572577
20
30.000000000000231
30
0
11
374.35289149572839
21
30.000000000000053
31
0
0
LINE
5
120
100
AcDbEntity
8
0
100
AcDbLine
10
374.35289149572839
20
30.000000000000053
30
0
11
374.35289149572827
21
8.0380146982861334e-13
31
0
0
LINE
5
121
100
AcDbEntity
8
0
100
AcDbLine
10
374.35289149572827
20
8.0380146982861334e-13
30
0
11
394.35289149572816
21
6.5937928275276902e-13
31
0
0
LINE
5
122
100
AcDbEntity
8
0
100
AcDbLine
10
394.35289149572816
20
6.5937928275276902e-13
30
0
11
394.35289149572833
21
20.000000000000608
31
0
0
LINE
5
123
100
AcDbEntity
8
0
100
AcDbLine
10
394.35289149572833
20
20.000000000000608
30
0
11
440.35289149572498
21
20.000000000000323
31
0
0
LINE
5
124
100
AcDbEntity
8
0
100
AcDbLine
10
389.01326314207205
20
211.90484461291149
30
0
11
364.35289149572776
21
185.70319973867075
31
0
0
LINE
5
125
100
AcDbEntity
8
0
100
AcDbLine
10
399.35289149572748
20
265.00000000000011
30
0
11
399.35289149572731
21
245.00000000000017
31
0
0
LINE
5
126
100
AcDbEntity
8
0
100
AcDbLine
10
399.35289149572731
20
245.00000000000017
30
0
11
374.35289149572736
21
245.00000000000031
31
0
0
LINE
5
127
100
AcDbEntity
8
0
100
AcDbLine
10
374.35289149572736
20
245.00000000000031
30
0
11
374.35289149572839
21
234.99999999999966
31
0
0
LINE
5
128
100
AcDbEntity
8
0
100
AcDbLine
10
374.35289149572839
20
234.99999999999966
30
0
11
364.35289149572839
21
234.99999999999966
31
0
0
LINE
5
129
100
AcDbEntity
8
0
100
AcDbLine
10
364.35289149572776
20
185.70319973867075
30
0
11
364.35289149572577
21
30.000000000000231
31
0
0
ENDSEC
0
SECTION
2
OBJECTS
0
DICTIONARY
5
C
100
AcDbDictionary
3
ACAD_GROUP
350
D
3
ACAD_MLINESTYLE
350
17
0
DICTIONARY
5
D
100
AcDbDictionary
0
DICTIONARY
5
1A
330
C
100
AcDbDictionary
0
DICTIONARY
5
17
100
AcDbDictionary
0
ENDSEC
0
EOF
