0
SECTION
2
HEADER
9
$INSUNITS
70
4
9
$ACADVER
1
AC1014
9
$HANDSEED
5
FFFF
0
ENDSEC
0
SECTION
2
TABLES
0
TABLE
2
VPORT
5
8
100
AcDbSymbolTable
0
ENDTAB
0
TABLE
2
LTYPE
5
5
100
AcDbSymbolTable
0
LTYPE
5
14
100
AcDbSymbolTableRecord
100
AcDbLinetypeTableRecord
2
BYBLOCK
70
0
0
LTYPE
5
15
100
AcDbSymbolTableRecord
100
AcDbLinetypeTableRecord
2
BYLAYER
70
0
0
ENDTAB
0
TABLE
2
LAYER
5
2
100
AcDbSymbolTable
70
2
0
LAYER
5
50
100
AcDbSymbolTableRecord
100
AcDbLayerTableRecord
2
0
70
0
6
CONTINUOUS
0
ENDTAB
0
TABLE
2
STYLE
5
3
100
AcDbSymbolTable
70
1
0
STYLE
5
11
100
AcDbSymbolTableRecord
100
AcDbTextStyleTableRecord
2
STANDARD
70
0
0
ENDTAB
0
TABLE
2
VIEW
5
6
100
AcDbSymbolTable
70
0
0
ENDTAB
0
TABLE
2
UCS
5
7
100
AcDbSymbolTable
70
0
0
ENDTAB
0
TABLE
2
APPID
5
9
100
AcDbSymbolTable
70
2
0
APPID
5
12
100
AcDbSymbolTableRecord
100
AcDbRegAppTableRecord
2
ACAD
70
0
0
ENDTAB
0
TABLE
2
DIMSTYLE
5
A
100
AcDbSymbolTable
70
1
0
ENDTAB
0
TABLE
2
BLOCK_RECORD
5
1
100
AcDbSymbolTable
70
1
0
BLOCK_RECORD
5
1F
100
AcDbSymbolTableRecord
100
AcDbBlockTableRecord
2
*MODEL_SPACE
0
BLOCK_RECORD
5
1B
100
AcDbSymbolTableRecord
100
AcDbBlockTableRecord
2
*PAPER_SPACE
0
ENDTAB
0
ENDSEC
0
SECTION
2
BLOCKS
0
BLOCK
5
20
100
AcDbEntity
100
AcDbBlockBegin
2
*MODEL_SPACE
0
ENDBLK
5
21
100
AcDbEntity
100
AcDbBlockEnd
0
BLOCK
5
1C
100
AcDbEntity
100
AcDbBlockBegin
2
*PAPER_SPACE
0
ENDBLK
5
1D
100
AcDbEntity
100
AcDbBlockEnd
0
ENDSEC
0
SECTION
2
ENTITIES
0
LINE
5
100
100
AcDbEntity
8
0
100
AcDbLine
10
-9.9999999999997904
20
-265.00000000000023
30
0
11
-9.9999999999999805
21
-235.00000000000026
31
-9.8607613152626476e-31
0
LINE
5
101
100
AcDbEntity
8
0
100
AcDbLine
10
-29.999999999999794
20
-265.00000000000074
30
-4.9303806576313238e-31
11
-9.9999999999997904
21
-265.00000000000023
31
0
0
LINE
5
102
100
AcDbEntity
8
0
100
AcDbLine
10
-29.999999999999932
20
-245.00000000000074
30
0
11
-29.999999999999794
21
-265.00000000000074
31
-4.9303806576313238e-31
0
LINE
5
103
100
AcDbEntity
8
0
100
AcDbLine
10
-70.999999999997897
20
-245.00000000000063
30
0
11
-29.999999999999929
21
-245.00000000000074
31
0
0
LINE
5
104
100
AcDbEntity
8
0
100
AcDbLine
10
-70.999999999997883
20
-265.00000000000068
30
0
11
-70.999999999997897
21
-245.00000000000063
31
0
0
LINE
5
105
100
AcDbEntity
8
0
100
AcDbLine
10
-90.999999999997868
20
-265.00000000000074
30
0
11
-70.999999999997883
21
-265.00000000000068
31
0
0
LINE
5
106
100
AcDbEntity
8
0
100
AcDbLine
10
-115.99999999999702
20
-30.000000000000185
30
0
11
-125.99999999999967
21
-30.000000000000341
31
0
0
LINE
5
107
100
AcDbEntity
8
0
100
AcDbLine
10
-115.99999999999719
20
-8.3601647339402308e-13
30
0
11
-115.99999999999702
21
-30.000000000000185
31
0
0
LINE
5
108
100
AcDbEntity
8
0
100
AcDbLine
10
-95.999999999997044
20
-20.000000000000703
30
0
11
-95.999999999997186
21
-7.0166095156309893e-13
31
0
0
LINE
5
109
100
AcDbEntity
8
0
100
AcDbLine
10
-30.000000000000036
20
-20.000000000000266
30
0
11
-95.999999999997044
21
-20.000000000000703
31
0
0
LINE
5
110
100
AcDbEntity
8
0
100
AcDbLine
10
-30.000000000000171
20
-2.6263571439014857e-13
30
0
11
-30.000000000000036
21
-20.000000000000266
31
0
0
LINE
5
111
100
AcDbEntity
8
0
100
AcDbLine
10
-9.9999999999999751
20
-30.000000000000185
30
0
11
-10.000000000000174
21
-1.2878587085651816e-13
31
0
0
LINE
5
112
100
AcDbEntity
8
0
100
AcDbLine
10
2.7149506601209996e-14
20
-30.000000000000178
30
0
11
-9.9999999999999751
21
-30.000000000000185
31
0
0
LINE
5
113
100
AcDbEntity
8
0
100
AcDbLine
10
1.4236116625821714e-14
20
-235.00000000000026
30
0
11
1.8960527592427202e-14
21
-162.00000000000006
31
0
0
LINE
5
114
100
AcDbEntity
8
0
100
AcDbLine
10
-9.9999999999999805
20
-235.00000000000026
30
0
11
1.4432899320127035e-14
21
-235.00000000000026
31
0
0
CIRCLE
5
115
100
AcDbEntity
8
0
100
AcDbCircle
10
-20.000000000000156
20
-10.000000000000197
30
0
40
2.8999999999999999
210
-1.7516230804060213e-46
220
1.8414519061247421e-96
230
1
0
CIRCLE
5
116
100
AcDbEntity
8
0
100
AcDbCircle
10
-80.999999999998309
20
-255.00000000000063
30
0
40
2.8999999999999999
210
-1.7516230804060213e-46
220
1.8414519061247421e-96
230
1
0
CIRCLE
5
117
100
AcDbEntity
8
0
100
AcDbCircle
10
-19.999999999999808
20
-255.00000000000051
30
0
40
2.8999999999999999
210
-1.7516230804060213e-46
220
1.8414519061247421e-96
230
1
0
CIRCLE
5
118
100
AcDbEntity
8
0
100
AcDbCircle
10
-105.99999999999717
20
-10.000000000000767
30
0
40
2.8999999999999999
210
-1.7516230804060213e-46
220
1.8414519061247421e-96
230
1
0
LINE
5
119
100
AcDbEntity
8
0
100
AcDbLine
10
-10.000000000000174
20
-1.2878587085651816e-13
30
0
11
-30.000000000000171
21
-2.6263571439014857e-13
31
0
0
LINE
5
120
100
AcDbEntity
8
0
100
AcDbLine
10
-95.999999999997186
20
-7.0166095156309893e-13
30
0
11
-115.99999999999719
21
-8.3601647339402308e-13
31
0
0
LINE
5
121
100
AcDbEntity
8
0
100
AcDbLine
10
-101.33962835365335
20
-211.90484461291206
30
0
11
-125.9999999999973
21
-211.90484461291206
31
0
0
LINE
5
122
100
AcDbEntity
8
0
100
AcDbLine
10
1.8960527592427202e-14
20
-162.00000000000006
30
0
11
-21.999999999999979
21
-162.00000000000006
31
0
0
LINE
5
123
100
AcDbEntity
8
0
100
AcDbLine
10
-21.999999999999979
20
-162.00000000000006
30
0
11
-21.999999999999979
21
-138.00000000000009
31
0
0
LINE
5
124
100
AcDbEntity
8
0
100
AcDbLine
10
-21.999999999999979
20
-138.00000000000009
30
0
11
2.2204460492503131e-14
21
-138.00000000000009
31
0
0
LINE
5
125
100
AcDbEntity
8
0
100
AcDbLine
10
2.2204460492503131e-14
20
-138.00000000000009
30
0
11
2.7149506601209996e-14
21
-30.000000000000178
31
0
0
LINE
5
126
100
AcDbEntity
8
0
100
AcDbLine
10
-125.99999999999967
20
-30.000000000000341
30
0
11
-125.99999999999764
21
-185.70319973867123
31
0
0
LINE
5
127
100
AcDbEntity
8
0
100
AcDbLine
10
-125.99999999999764
20
-185.70319973867123
30
0
11
-101.33962835365335
21
-211.90484461291206
31
0
0
LINE
5
128
100
AcDbEntity
8
0
100
AcDbLine
10
-125.9999999999973
20
-211.90484461291206
30
0
11
-125.99999999999699
21
-235.00000000000026
31
0
0
LINE
5
129
100
AcDbEntity
8
0
100
AcDbLine
10
-125.99999999999699
20
-235.00000000000026
30
0
11
-115.99999999999699
21
-235.00000000000026
31
0
0
LINE
5
130
100
AcDbEntity
8
0
100
AcDbLine
10
-115.99999999999699
20
-235.00000000000026
30
0
11
-115.99999999999798
21
-245.00000000000091
31
0
0
LINE
5
131
100
AcDbEntity
8
0
100
AcDbLine
10
-115.99999999999798
20
-245.00000000000091
30
0
11
-90.999999999997982
21
-245.0000000000008
31
0
0
LINE
5
132
100
AcDbEntity
8
0
100
AcDbLine
10
-90.999999999997982
20
-245.0000000000008
30
0
11
-90.999999999997868
21
-265.00000000000074
31
0
0
ENDSEC
0
SECTION
2
OBJECTS
0
DICTIONARY
5
C
100
AcDbDictionary
3
ACAD_GROUP
350
D
3
ACAD_MLINESTYLE
350
17
0
DICTIONARY
5
D
100
AcDbDictionary
0
DICTIONARY
5
1A
330
C
100
AcDbDictionary
0
DICTIONARY
5
17
100
AcDbDictionary
0
ENDSEC
0
EOF
