<?xml version="1.0" encoding="UTF-8" standalone="no"?>
<!-- Created with Inkscape (http://www.inkscape.org/) -->

<svg
   version="1.1"
   id="svg1"
   width="6015.8228"
   height="3838.3347"
   viewBox="0 0 601.58228 383.83347"
   xmlns="http://www.w3.org/2000/svg"
   xmlns:svg="http://www.w3.org/2000/svg">
  <defs
     id="defs1" />
  <g
     id="g1"
     transform="translate(0.49995926,0.49998206)">
    <path
       id="path1"
       d="m 180.828,14.059 c 1.039,-0.032 2.371,17.363 2.973,38.828 0.597,21.461 0.238,38.902 -0.801,38.933 -1.043,0.028 -2.375,-17.367 -2.973,-38.828 -0.597,-21.465 -0.242,-38.906 0.801,-38.933 z"
       style="fill:#1b1f23;fill-opacity:1;fill-rule:nonzero;stroke:#f6f8fa;stroke-width:0.75;stroke-linecap:round;stroke-linejoin:round;stroke-dasharray:none;stroke-opacity:1;paint-order:stroke fill markers"
       transform="scale(1.3333333)" />
    <path
       id="path2"
       d="m 63.828,36.32 c 0.434,-0.949 34.16,13.52 75.281,32.293 41.125,18.774 74.153,34.782 73.719,35.727 -0.433,0.949 -34.16,-13.52 -75.285,-32.293 C 96.418,53.273 63.395,37.266 63.828,36.32 Z"
       style="fill:#1b1f23;fill-opacity:1;fill-rule:nonzero;stroke:#f6f8fa;stroke-width:0.75;stroke-linecap:round;stroke-linejoin:round;stroke-dasharray:none;stroke-opacity:1;paint-order:stroke fill markers"
       transform="scale(1.3333333)" />
    <path
       id="path3"
       d="M 63.828,36.32 C 63.395,36.336 63.844,29.262 58.949,19.832 57.188,16.43 54.543,12.816 50.77,9.879 46.09,6.234 39.574,3.426 32.43,3.48 27.633,3.523 22.516,4.434 18.012,6.809 c -3.617,1.894 -6.883,4.753 -9.293,8.3 -0.641,0.942 -1.223,1.926 -1.742,2.953 -1.352,2.657 -2.27,5.504 -2.778,8.376 -0.734,4.156 -0.617,8.355 0.231,12.261 0.894,4.121 2.586,7.883 4.914,10.977 2.597,3.465 5.988,6.043 9.527,7.621 4.844,2.18 10.098,2.562 14.43,2.289 12.644,-0.797 19.844,-5.254 20.054,-4.828 0.207,0.43 -6.484,5.73 -19.828,7.301 -4.601,0.543 -10.3,0.347 -15.871,-1.914 C 13.59,58.477 9.668,55.656 6.621,51.766 3.91,48.293 1.926,44.094 0.875,39.492 -0.121,35.133 -0.297,30.453 0.504,25.793 1.051,22.57 2.078,19.363 3.613,16.352 4.207,15.184 4.871,14.062 5.602,12.988 8.391,8.91 12.133,5.672 16.312,3.527 21.527,0.879 27.207,-0.07 32.441,0.004 c 8.09,0.105 15.18,3.406 20.168,7.609 4.051,3.407 6.735,7.465 8.407,11.227 4.621,10.402 3.242,17.465 2.812,17.48 z"
       style="fill:#1b1f23;fill-opacity:1;fill-rule:nonzero;stroke:#f6f8fa;stroke-width:0.75;stroke-linecap:round;stroke-linejoin:round;stroke-dasharray:none;stroke-opacity:1;paint-order:stroke fill markers"
       transform="scale(1.3333333)" />
    <path
       id="path4"
       d="M 214.039,128.824 C 213.602,129.77 177.18,113.82 132.742,93.227 88.305,72.629 52.594,55.148 53.031,54.203 c 0.438,-0.945 36.86,15.004 81.297,35.598 44.438,20.594 80.149,38.078 79.711,39.023 z"
       style="fill:#1b1f23;fill-opacity:1;fill-rule:nonzero;stroke:#f6f8fa;stroke-width:0.75;stroke-linecap:round;stroke-linejoin:round;stroke-dasharray:none;stroke-opacity:1;paint-order:stroke fill markers"
       transform="scale(1.3333333)" />
    <path
       id="path5"
       d="m 210.867,25.352 c 1.043,-0.028 3.496,55.097 5.477,123.05 1.98,67.95 2.742,123.125 1.703,123.157 -1.043,0.031 -3.496,-55.094 -5.477,-123.047 -1.98,-67.953 -2.742,-123.129 -1.703,-123.16 z"
       style="fill:#1b1f23;fill-opacity:1;fill-rule:nonzero;stroke:#f6f8fa;stroke-width:0.75;stroke-linecap:round;stroke-linejoin:round;stroke-dasharray:none;stroke-opacity:1;paint-order:stroke fill markers"
       transform="scale(1.3333333)" />
    <path
       id="path6"
       d="m 184.074,116.613 c 1.039,-0.039 2.973,27.137 4.309,60.668 1.34,33.528 1.582,60.774 0.543,60.817 -1.039,0.039 -2.973,-27.137 -4.313,-60.668 -1.34,-33.528 -1.582,-60.774 -0.539,-60.817 z"
       style="fill:#1b1f23;fill-opacity:1;fill-rule:nonzero;stroke:#f6f8fa;stroke-width:0.75;stroke-linecap:round;stroke-linejoin:round;stroke-dasharray:none;stroke-opacity:1;paint-order:stroke fill markers"
       transform="scale(1.3333333)" />
    <path
       id="path7"
       d="m 200.457,252 c -0.758,0.715 -4.145,-1.66 -7.555,-5.297 -3.41,-3.641 -5.562,-7.172 -4.804,-7.883 0.761,-0.711 4.144,1.66 7.558,5.301 3.41,3.637 5.563,7.168 4.801,7.879 z"
       style="fill:#1b1f23;fill-opacity:1;fill-rule:nonzero;stroke:#f6f8fa;stroke-width:0.75;stroke-linecap:round;stroke-linejoin:round;stroke-dasharray:none;stroke-opacity:1;paint-order:stroke fill markers"
       transform="scale(1.3333333)" />
    <path
       id="path8"
       d="m 215.73,248.574 c 0.247,1.012 -2.601,2.578 -6.359,3.496 -3.754,0.918 -7.004,0.84 -7.25,-0.172 -0.246,-1.011 2.602,-2.578 6.356,-3.496 3.757,-0.918 7.003,-0.84 7.253,0.172 z"
       style="fill:#1b1f23;fill-opacity:1;fill-rule:nonzero;stroke:#f6f8fa;stroke-width:0.75;stroke-linecap:round;stroke-linejoin:round;stroke-dasharray:none;stroke-opacity:1;paint-order:stroke fill markers"
       transform="scale(1.3333333)" />
    <path
       id="path9"
       d="m 218.324,273.004 c 0.778,-0.695 4.223,1.879 7.692,5.742 3.464,3.867 5.652,7.57 4.875,8.266 -0.774,0.695 -4.219,-1.879 -7.688,-5.746 -3.465,-3.864 -5.652,-7.567 -4.879,-8.262 z"
       style="fill:#1b1f23;fill-opacity:1;fill-rule:nonzero;stroke:#f6f8fa;stroke-width:0.75;stroke-linecap:round;stroke-linejoin:round;stroke-dasharray:none;stroke-opacity:1;paint-order:stroke fill markers"
       transform="scale(1.3333333)" />
    <path
       id="path10"
       d="m 232.438,286.711 c -0.231,-1.016 43.613,-11.863 97.871,-24.215 54.253,-12.351 98.472,-21.555 98.707,-20.539 0.23,1.016 -43.618,11.867 -97.871,24.219 -54.254,12.351 -98.477,21.551 -98.707,20.535 z"
       style="fill:#1b1f23;fill-opacity:1;fill-rule:nonzero;stroke:#f6f8fa;stroke-width:0.75;stroke-linecap:round;stroke-linejoin:round;stroke-dasharray:none;stroke-opacity:1;paint-order:stroke fill markers"
       transform="scale(1.3333333)" />
    <path
       id="path11"
       d="m 430.121,241.887 c -0.828,-0.055 2.352,-58.5 7.484,-139.469 0.719,-14.727 -0.992,-30.793 -7.714,-45.207 -2.391,-5.149 -5.489,-10.027 -9.211,-14.481 -6.051,-7.242 -13.5,-13.066 -21.649,-17.074 -4.926,-2.468 -10.613,-3.414 -16.179,-3.914 -35.188,1.676 -94.719,6.09 -112.895,7.266 -28.203,1.824 -45.133,2.449 -45.16,2 -0.031,-0.446 16.84,-1.887 45.027,-4.356 23.406,-2.05 72.469,-6.472 113.086,-8.578 5.867,0.449 12.074,1.488 17.766,4.227 8.636,4.226 16.508,10.363 22.898,18.011 3.93,4.704 7.199,9.864 9.727,15.317 7.004,15.203 8.746,31.855 7.879,47 -5.637,80.961 -10.227,139.312 -11.059,139.258 z"
       style="fill:#1b1f23;fill-opacity:1;fill-rule:nonzero;stroke:#f6f8fa;stroke-width:0.75;stroke-linecap:round;stroke-linejoin:round;stroke-dasharray:none;stroke-opacity:1;paint-order:stroke fill markers"
       transform="scale(1.3333333)" />
    <path
       id="path12"
       d="m 211.109,24.668 c -0.066,-1.039 43.883,-4.77 98.11,-8.328 15.812,-1.039 30.761,-1.949 44.008,-2.692 9.554,-0.39 17.382,-0.304 25.023,0.965 18.344,3.078 27.539,11.231 27.254,11.676 -0.289,0.441 -9.91,-6.715 -27.652,-9.008 -7.438,-0.969 -14.93,-0.82 -24.434,-0.261 -13.227,0.996 -28.164,2.046 -43.973,3.085 -54.211,3.559 -98.265,5.602 -98.336,4.563 z"
       style="fill:#1b1f23;fill-opacity:1;fill-rule:nonzero;stroke:#f6f8fa;stroke-width:0.75;stroke-linecap:round;stroke-linejoin:round;stroke-dasharray:none;stroke-opacity:1;paint-order:stroke fill markers"
       transform="scale(1.3333333)" />
    <path
       id="path13"
       d="m 180.871,14.16 c -0.062,-1.043 39.426,-4.289 88.141,-7.254 16.769,-1.019 32.461,-1.875 45.828,-2.515 8.125,-0.426 15.922,1.804 21.461,3.644 12.64,4.16 19.996,6.824 19.894,7.277 -0.097,0.458 -7.988,-1.464 -20.601,-4.933 -5.524,-1.508 -13.172,-3.402 -20.547,-2.77 -13.348,0.989 -29.024,2.043 -45.797,3.063 -48.723,2.965 -88.316,4.527 -88.379,3.488 z"
       style="fill:#1b1f23;fill-opacity:1;fill-rule:nonzero;stroke:#f6f8fa;stroke-width:0.75;stroke-linecap:round;stroke-linejoin:round;stroke-dasharray:none;stroke-opacity:1;paint-order:stroke fill markers"
       transform="scale(1.3333333)" />
    <path
       id="path14"
       d="m 192.344,19.488 c -0.071,-1.039 35.652,-4.316 79.742,-7.312 20.523,-1.395 39.258,-2.485 53.426,-3.145 6.988,-0.246 11.812,-0.113 16.558,1.074 6.582,1.676 9.246,4.735 9.063,5.012 -0.188,0.278 -3.317,-2.219 -9.442,-3.207 -4.668,-0.781 -8.984,-0.59 -16.007,-0.078 -14.129,1.262 -32.84,2.715 -53.36,4.109 -44.078,2.997 -79.91,4.586 -79.98,3.547 z"
       style="fill:#1b1f23;fill-opacity:1;fill-rule:nonzero;stroke:#f6f8fa;stroke-width:0.75;stroke-linecap:round;stroke-linejoin:round;stroke-dasharray:none;stroke-opacity:1;paint-order:stroke fill markers"
       transform="scale(1.3333333)" />
    <path
       id="path15"
       d="m 180.949,14.555 c 0.406,-0.957 3.199,-0.692 6.239,0.597 3.035,1.289 5.167,3.114 4.761,4.075 -0.406,0.957 -3.203,0.691 -6.238,-0.602 -3.035,-1.289 -5.172,-3.113 -4.762,-4.07 z"
       style="fill:#1b1f23;fill-opacity:1;fill-rule:nonzero;stroke:#f6f8fa;stroke-width:0.75;stroke-linecap:round;stroke-linejoin:round;stroke-dasharray:none;stroke-opacity:1;paint-order:stroke fill markers"
       transform="scale(1.3333333)" />
    <path
       id="path16"
       d="m 195.145,94.91 c -1.04,0.043 -2.54,-16.656 -3.348,-37.273 -0.809,-20.617 -0.617,-37.379 0.422,-37.422 1.043,-0.039 2.543,16.66 3.347,37.273 0.809,20.617 0.618,37.383 -0.421,37.422 z"
       style="fill:#1b1f23;fill-opacity:1;fill-rule:nonzero;stroke:#f6f8fa;stroke-width:0.75;stroke-linecap:round;stroke-linejoin:round;stroke-dasharray:none;stroke-opacity:1;paint-order:stroke fill markers"
       transform="scale(1.3333333)" />
    <path
       id="path17"
       d="m 211.422,25.703 c 0.441,-0.945 3.5,-0.449 6.828,1.106 3.324,1.558 5.668,3.586 5.227,4.527 -0.442,0.945 -3.5,0.449 -6.829,-1.106 -3.324,-1.558 -5.668,-3.585 -5.226,-4.527 z"
       style="fill:#1b1f23;fill-opacity:1;fill-rule:nonzero;stroke:#f6f8fa;stroke-width:0.75;stroke-linecap:round;stroke-linejoin:round;stroke-dasharray:none;stroke-opacity:1;paint-order:stroke fill markers"
       transform="scale(1.3333333)" />
    <path
       id="path18"
       d="m 224.934,32.102 c 1.039,-0.028 3.414,56.867 5.293,126.996 1.882,70.125 2.566,127.066 1.523,127.093 -1.039,0.028 -3.414,-56.867 -5.293,-126.992 C 224.574,89.07 223.891,32.133 224.934,32.102 Z"
       style="fill:#1b1f23;fill-opacity:1;fill-rule:nonzero;stroke:#f6f8fa;stroke-width:0.75;stroke-linecap:round;stroke-linejoin:round;stroke-dasharray:none;stroke-opacity:1;paint-order:stroke fill markers"
       transform="scale(1.3333333)" />
    <path
       id="path19"
       d="m 306.57,142.586 c -0.093,0.336 -1.472,0.191 -3.73,0.348 -2.258,0.152 -5.477,0.699 -8.738,2.476 -3.278,1.774 -6.457,4.582 -9.063,8.445 -0.047,0.071 -0.094,0.141 -0.141,0.211 -2.589,3.961 -3.945,8.012 -4.261,11.735 -0.309,3.586 0.484,6.648 1.258,8.695 0.769,2.047 1.46,3.195 1.203,3.422 -0.262,0.223 -1.485,-0.527 -2.868,-2.539 -1.375,-2.004 -2.851,-5.363 -2.828,-9.715 0.024,-4.352 1.375,-9.172 4.344,-13.668 0.051,-0.082 0.106,-0.164 0.16,-0.242 2.953,-4.418 6.813,-7.52 10.754,-9.285 4.063,-1.813 7.824,-1.864 10.285,-1.446 2.481,0.422 3.719,1.223 3.625,1.563 z"
       style="fill:#1b1f23;fill-opacity:1;fill-rule:nonzero;stroke:#f6f8fa;stroke-width:0.75;stroke-linecap:round;stroke-linejoin:round;stroke-dasharray:none;stroke-opacity:1;paint-order:stroke fill markers"
       transform="scale(1.3333333)" />
    <path
       id="path20"
       d="m 318.66,149.414 c -0.523,0.898 -3.816,-0.047 -7.348,-2.105 -3.527,-2.063 -5.968,-4.465 -5.441,-5.364 0.524,-0.902 3.817,0.043 7.348,2.102 3.527,2.062 5.969,4.465 5.441,5.367 z"
       style="fill:#1b1f23;fill-opacity:1;fill-rule:nonzero;stroke:#f6f8fa;stroke-width:0.75;stroke-linecap:round;stroke-linejoin:round;stroke-dasharray:none;stroke-opacity:1;paint-order:stroke fill markers"
       transform="scale(1.3333333)" />
    <path
       id="path21"
       d="m 281.965,177.316 c 0.558,-0.878 4.543,0.653 8.89,3.418 4.344,2.766 7.422,5.723 6.86,6.602 -0.559,0.879 -4.539,-0.652 -8.887,-3.418 -4.348,-2.766 -7.422,-5.723 -6.863,-6.602 z"
       style="fill:#1b1f23;fill-opacity:1;fill-rule:nonzero;stroke:#f6f8fa;stroke-width:0.75;stroke-linecap:round;stroke-linejoin:round;stroke-dasharray:none;stroke-opacity:1;paint-order:stroke fill markers"
       transform="scale(1.3333333)" />
    <path
       id="path22"
       d="m 296.93,186.988 c -0.137,0.274 -2.907,-0.199 -5.575,-3.847 -1.175,-1.614 -2.164,-3.774 -2.632,-6.45 -0.766,-4.402 -0.235,-9.703 2.226,-15.23 1.957,-4.492 5.278,-9.223 10.297,-12.399 4.649,-2.859 10.738,-3.847 16.5,-2.035 0.899,0.434 1.762,0.934 2.59,1.5 3.996,2.731 6.832,6.754 8.047,11.157 1.469,5.625 0.547,11.296 -1.516,15.847 -2.539,5.668 -6.898,9.723 -11.273,11.852 -10.813,5.168 -18.414,0.625 -18.27,0.125 0.145,-0.504 7.965,2.672 17.035,-2.5 3.731,-2.082 7.352,-5.828 9.418,-10.813 1.645,-4.023 2.348,-8.941 1.039,-13.543 -0.925,-3.488 -3.238,-6.75 -6.406,-8.933 -0.66,-0.453 -1.348,-0.856 -2.058,-1.199 -4.516,-1.465 -9.497,-0.672 -13.215,1.613 -4.297,2.551 -7.36,6.687 -9.317,10.656 -2.402,4.969 -3.191,9.602 -2.789,13.582 0.242,2.387 0.891,4.32 1.75,5.848 1.903,3.414 4.281,4.496 4.149,4.769 z"
       style="fill:#1b1f23;fill-opacity:1;fill-rule:nonzero;stroke:#f6f8fa;stroke-width:0.75;stroke-linecap:round;stroke-linejoin:round;stroke-dasharray:none;stroke-opacity:1;paint-order:stroke fill markers"
       transform="scale(1.3333333)" />
    <path
       id="path23"
       d="m 341.133,138.719 c -0.422,0.226 -4.285,-10.418 -17.723,-19.489 -4.758,-3.222 -11.07,-5.812 -18.133,-5.8 -5.82,-0.02 -11.925,1.672 -17.836,4.828 -5.769,3.086 -11.117,7.433 -15.964,12.765 -4.122,4.539 -7.789,9.715 -10.813,15.426 -0.43,0.805 -0.84,1.621 -1.238,2.438 -3.156,6.527 -5.278,13.25 -6.11,19.953 -0.836,6.746 -0.343,13.269 1.68,19.035 2.27,6.535 6.543,11.848 11.297,15.52 5.844,4.593 14.07,5.851 19.699,6.519 6.285,0.723 11.446,0.813 14.946,1.203 3.5,0.391 5.359,0.871 5.332,1.074 -0.028,0.207 -1.918,0.125 -5.403,0.106 -1.441,-0.004 -10.609,0.117 -15.07,-0.176 -5.797,-0.351 -14.402,-1.363 -21.305,-6.324 -5.281,-3.856 -10.074,-9.555 -12.726,-16.766 -2.309,-6.328 -2.957,-13.406 -2.098,-20.636 0.844,-7.161 3.043,-14.297 6.363,-21.153 0.414,-0.859 0.848,-1.711 1.297,-2.558 3.172,-5.996 7.043,-11.422 11.406,-16.164 5.121,-5.579 10.86,-10.125 17.078,-13.352 6.387,-3.328 13.09,-5.008 19.508,-4.863 7.84,0.207 14.578,3.226 19.535,6.886 13.84,10.262 16.7,21.301 16.278,21.528 z"
       style="fill:#1b1f23;fill-opacity:1;fill-rule:nonzero;stroke:#f6f8fa;stroke-width:0.75;stroke-linecap:round;stroke-linejoin:round;stroke-dasharray:none;stroke-opacity:1;paint-order:stroke fill markers"
       transform="scale(1.3333333)" />
    <path
       id="path24"
       d="m 343.664,135.457 c -0.43,0.246 -4.855,-10.945 -19.457,-20.25 -5.246,-3.355 -12.254,-6.055 -20.062,-6.047 -6.415,-0.015 -13.165,1.727 -19.75,5.043 -6.313,3.188 -12.247,7.703 -17.633,13.293 -4.41,4.578 -8.383,9.816 -11.688,15.617 -0.554,0.977 -1.09,1.965 -1.597,2.957 -3.457,6.742 -5.809,13.727 -6.727,20.723 -0.914,6.988 -0.363,13.789 1.859,19.746 2.528,6.859 7.305,12.367 12.477,16.137 3.07,2.25 6.648,3.679 10.012,4.656 4.062,1.168 8.222,1.762 11.777,2.148 6.934,0.75 12.617,0.844 16.473,1.254 3.859,0.407 5.914,0.911 5.886,1.125 -0.027,0.219 -2.113,0.133 -5.953,0.118 -1.613,-0.004 -11.679,0.128 -16.601,-0.176 -3.649,-0.223 -7.957,-0.668 -12.313,-1.758 -3.613,-0.902 -7.535,-2.355 -11.097,-4.797 -5.723,-3.941 -11.047,-9.84 -14.008,-17.437 -2.532,-6.571 -3.258,-13.981 -2.305,-21.504 0.941,-7.504 3.391,-14.938 7.027,-22.024 0.536,-1.047 1.098,-2.082 1.684,-3.109 3.473,-6.098 7.656,-11.586 12.316,-16.363 5.684,-5.844 12.02,-10.551 18.789,-13.868 7.075,-3.472 14.415,-5.187 21.415,-5.035 8.562,0.215 16,3.348 21.457,7.149 15.039,10.511 18.453,22.156 18.019,22.402 z"
       style="fill:#1b1f23;fill-opacity:1;fill-rule:nonzero;stroke:#f6f8fa;stroke-width:0.75;stroke-linecap:round;stroke-linejoin:round;stroke-dasharray:none;stroke-opacity:1;paint-order:stroke fill markers"
       transform="scale(1.3333333)" />
    <path
       id="path25"
       d="m 306.332,212.559 c 0.188,-0.051 1.219,3.105 2.18,9.101 0.527,3.278 0.945,6.543 1.504,11.184 0.629,5.222 1.496,14.281 3.207,21.543 -0.215,-0.41 -0.282,-0.578 -0.285,-0.477 0.035,0.028 0.14,0.055 0.308,0.113 0.512,0.161 1.094,0.25 1.731,0.352 1.828,0.27 3.687,0.402 5.683,0.531 1.988,0.121 4.016,0.211 6.11,0.274 1.242,0.039 2.511,0.086 3.742,0.07 -0.114,-0.062 -0.34,0.062 -0.727,0.348 -0.223,0.371 -0.32,0.574 -0.262,0.64 0.043,0.032 -0.074,-0.117 -0.199,-0.465 -0.449,-0.964 -1.082,-1.898 -1.746,-2.949 -0.68,-1.054 -1.43,-2.183 -2.105,-3.386 -0.239,-0.418 -0.496,-0.907 -0.703,-1.493 -0.266,-0.148 -0.317,-0.867 0.14,-2.035 0.801,-0.867 1.594,-1.18 2.086,-1.168 0.895,-0.191 1.746,-0.25 2.543,-0.269 2.18,-0.075 4.301,0.05 6.449,0.179 2.043,0.125 4.18,0.289 6.211,0.348 0.723,0.016 1.41,0.031 2.035,-0.023 0.211,-0.024 0.368,-0.039 0.457,-0.067 0.09,-0.09 0,0.004 -0.328,0.231 -0.34,0.902 -0.547,1.148 -0.359,0.894 -0.063,-0.219 -0.234,-0.5 -0.442,-0.863 -0.593,-1.004 -1.32,-1.977 -2.082,-3.02 -0.734,-0.996 -1.527,-2.039 -2.281,-3.14 -0.246,-0.36 -0.527,-0.782 -0.785,-1.293 -0.082,-0.141 -0.18,-0.379 -0.273,-0.731 -0.196,-0.129 -0.106,-0.672 0.332,-1.593 0.476,-0.481 0.836,-0.711 1.027,-0.727 0.352,-0.141 0.664,-0.227 0.922,-0.281 0.793,-0.184 1.551,-0.285 2.266,-0.375 2.039,-0.258 4.07,-0.426 6.078,-0.649 2.078,-0.234 4.156,-0.48 6.125,-0.945 0.781,-0.188 1.511,-0.383 2.144,-0.664 0.461,-0.246 0.809,-0.379 0.852,-0.52 -0.364,0.832 -0.473,1.282 -0.27,1.403 0.074,0.136 0.063,0.156 -0.004,0.043 -0.211,-0.289 -0.547,-0.59 -0.937,-0.969 -1.059,-0.996 -2.231,-1.977 -3.406,-3.066 -0.551,-0.508 -1.118,-1.055 -1.665,-1.661 -0.398,-0.418 -0.855,-0.98 -1.25,-1.75 -0.148,-0.257 -0.269,-0.672 -0.316,-1.234 -0.027,-0.547 0.168,-1.102 0.586,-1.625 1.203,-0.934 2.203,-1.133 2.68,-0.937 3.707,0.175 7.527,-0.926 10.984,-2.813 1.156,-0.641 2.27,-1.367 3.344,-2.172 0.32,-0.238 0.644,-0.492 0.976,-0.754 0.09,-0.074 0.203,-0.164 0.336,-0.261 -0.246,0.066 -0.082,-0.04 0.512,-0.282 -0.461,0.266 -0.766,0.692 -0.953,1.317 0.055,0.457 0.078,0.664 0.121,0.621 -0.004,-0.071 -0.219,-0.231 -0.523,-0.547 -0.891,-0.824 -1.942,-1.578 -3.051,-2.418 -0.961,-0.719 -2.059,-1.496 -3.106,-2.516 -0.242,-0.015 -0.695,-0.605 -1.07,-1.851 -0.039,-0.848 0.297,-1.535 0.988,-2.02 0.707,-0.32 1.172,-0.414 1.36,-0.347 1.465,0.027 3.023,-0.301 4.679,-0.676 1.985,-0.465 3.953,-1.071 5.903,-1.785 1.781,-0.657 3.519,-1.372 5.109,-2.262 1.078,-0.719 2.047,-1.027 2.063,-1.434 -0.047,0.145 -0.051,0.242 -0.012,0.426 0.047,-0.004 -0.113,-0.094 -0.352,-0.309 -0.73,-0.546 -1.777,-0.89 -2.957,-1.32 -1.136,-0.39 -2.383,-0.746 -3.679,-1.226 -0.43,-0.149 -0.965,-0.368 -1.559,-0.731 0,0 -0.004,0 -0.004,0 -0.453,0.051 -0.984,-0.711 -1.297,-2.305 0.133,-0.753 0.348,-1.234 0.571,-1.445 0.285,-0.387 0.566,-0.676 0.816,-0.894 0.723,-0.657 1.465,-1.18 2.16,-1.641 0.93,-0.625 1.875,-1.215 2.82,-1.781 1.032,-0.621 2.067,-1.219 3.078,-1.809 1.965,-1.148 3.879,-2.238 5.668,-3.441 0.645,-0.438 1.223,-0.832 1.676,-1.258 0.149,-0.152 0.25,-0.238 0.266,-0.281 -0.024,-0.078 -0.047,0.105 -0.141,0.562 -0.074,-0.316 -0.043,-0.59 -0.027,-0.387 -0.09,-0.168 -0.617,-0.144 -1.363,-0.257 -2.055,-0.114 -4.414,0.093 -7.008,-0.508 -0.348,0.035 -0.906,-0.285 -1.578,-1.012 -0.442,-0.898 -0.512,-1.609 -0.27,-2.066 0.469,-1.137 1.07,-1.789 1.485,-2.09 1.628,-1.582 3.394,-2.852 5.011,-4.067 1.957,-1.484 3.852,-2.886 5.602,-4.406 0.711,-0.625 1.371,-1.222 1.91,-1.855 0.367,-0.516 0.672,-0.797 0.629,-0.918 -0.086,0.035 0.019,0.195 0.219,0.64 0.265,0.172 0.246,0.25 0.062,0.129 -0.66,-0.195 -1.586,-0.097 -2.691,-0.078 -1.09,0.051 -2.305,0.149 -3.649,0.035 -0.465,-0.011 -1.097,-0.133 -1.836,-0.468 -0.726,-0.317 -1.269,-1.043 -1.492,-2.106 -0.004,-0.758 0.113,-1.25 0.262,-1.473 0.191,-0.441 0.398,-0.808 0.59,-1.109 0.57,-0.91 1.187,-1.715 1.781,-2.461 1.637,-2.07 3.324,-4.012 4.914,-5.949 1.516,-1.859 2.965,-3.578 4.008,-5.445 0.305,-0.637 0.59,-1.055 0.555,-1.286 -0.043,-0.011 0.015,0.094 0.125,0.375 0.222,0.254 0.339,0.379 0.437,0.368 -0.094,-0.172 -0.617,0.109 -1.41,0.304 -0.875,0.328 -1.793,0.809 -2.832,1.27 -0.766,0.402 -1.867,0.847 -3.313,0.859 -0.656,-0.004 -1.347,-0.269 -1.988,-0.812 -0.644,-0.703 -0.953,-1.41 -1.012,-1.989 -0.101,-1.214 0.16,-2.035 0.438,-2.421 0.387,-0.875 0.84,-1.653 1.281,-2.36 1.211,-1.969 2.543,-3.851 3.766,-5.64 1.297,-1.911 2.531,-3.719 3.543,-5.61 0.39,-0.738 0.738,-1.426 0.941,-2.097 0.098,-0.508 0.242,-0.813 0.16,-0.829 0.114,0.332 0.309,0.563 0.602,0.719 0.25,0.074 0.34,0.113 0.293,0.082 -0.184,-0.023 -0.504,0.106 -0.961,0.238 -1.289,0.434 -2.594,1.079 -3.942,1.704 -1.324,0.625 -2.671,1.289 -4.171,1.808 -0.426,0.172 -1.04,0.352 -1.836,0.379 -0.258,0.047 -0.68,-0.055 -1.231,-0.355 -0.527,-0.434 -0.797,-0.922 -0.808,-1.418 0.031,-1.161 0.394,-1.918 0.714,-2.289 0.485,-0.813 1.024,-1.528 1.524,-2.184 1.418,-1.871 2.762,-3.539 3.941,-5.34 1.239,-1.937 2.289,-3.812 2.629,-5.773 0.336,-1.778 -0.121,-3.68 -1.238,-4.93 0.445,0.32 0.676,0.453 0.73,0.367 0.082,-0.008 0.078,0.004 -0.007,0.012 -0.262,0.051 -0.571,0.18 -0.934,0.328 -1.227,0.508 -2.445,1.156 -3.641,1.797 -3.8,2.035 -7.597,4.297 -10.894,6.269 -3.914,2.344 -7.762,4.7 -11.008,6.692 -1.281,0.789 -2.555,1.574 -3.836,2.359 -0.625,0.383 -1.195,0.75 -1.832,1.117 -3.566,2.051 -5.461,3.383 -8.453,4.614 -0.977,0.402 -1.879,0.715 -2.688,1.027 -4.347,1.676 -6.656,2.66 -6.73,2.508 -0.07,-0.156 2.082,-1.434 6.344,-3.418 0.808,-0.375 1.691,-0.742 2.601,-1.18 2.875,-1.367 4.481,-2.664 8.102,-4.926 0.582,-0.363 1.121,-0.742 1.75,-1.16 1.183,-0.785 2.461,-1.636 3.758,-2.488 3.214,-2.125 6.933,-4.551 10.836,-7.02 3.261,-2.066 7.015,-4.421 10.847,-6.578 1.192,-0.672 2.465,-1.379 3.824,-1.98 0.379,-0.172 0.829,-0.356 1.36,-0.492 0.148,-0.047 0.383,-0.082 0.703,-0.082 0.199,-0.082 0.586,0.078 1.125,0.507 1.676,1.915 2.406,4.551 1.969,7.129 -0.45,2.528 -1.598,4.778 -2.926,6.84 -1.25,1.969 -2.609,3.715 -3.973,5.563 -0.484,0.668 -0.949,1.297 -1.308,1.926 -0.188,0.503 -0.407,0.691 -0.297,0.55 0,0 0,-0.004 0,-0.004 0.008,-0.265 -0.157,-0.527 -0.492,-0.832 -0.329,-0.148 -0.469,-0.218 -0.454,-0.168 0.114,0.028 0.387,-0.101 0.829,-0.23 1.25,-0.442 2.484,-1.082 3.847,-1.734 1.297,-0.633 2.699,-1.336 4.231,-1.883 0.465,-0.188 1.097,-0.379 1.898,-0.43 0.258,-0.043 0.664,0.02 1.188,0.227 0.515,0.261 0.879,0.691 1.062,1.257 0.242,1.114 0.098,2.028 -0.156,2.649 -0.305,0.98 -0.719,1.859 -1.145,2.664 -1.101,2.094 -2.375,4.016 -3.66,5.937 -1.222,1.84 -2.512,3.696 -3.625,5.547 -0.406,0.684 -0.785,1.328 -1.047,1.957 -0.113,0.516 -0.297,0.668 -0.211,0.422 0.098,0.215 0.075,0.313 0.02,0.168 -0.164,-0.097 -0.203,-0.144 -0.203,-0.121 0.324,0.09 0.898,-0.262 1.758,-0.586 0.894,-0.406 1.882,-0.93 3,-1.367 0.824,-0.422 2.097,-0.738 3.671,-0.399 0.528,0.122 1.055,0.5 1.516,1.141 0.344,0.672 0.457,1.258 0.379,1.707 -0.145,1.207 -0.574,2.113 -0.977,2.742 -1.253,2.231 -2.808,4.133 -4.308,5.977 -1.621,2 -3.285,3.933 -4.836,5.926 -0.57,0.734 -1.109,1.433 -1.539,2.14 -0.145,0.243 -0.262,0.434 -0.317,0.586 -0.007,0.16 -0.035,0.074 -0.003,-0.273 -0.161,-0.481 -0.274,-0.715 -0.473,-0.77 -0.02,0.032 0.172,0.024 0.516,0.082 0.917,0.09 1.968,-0.011 3.16,-0.062 1.023,-0.07 2.285,-0.141 3.711,0.16 0.507,0.047 1.191,0.379 1.914,1.102 0.629,0.96 0.773,1.871 0.523,2.562 -0.344,1.172 -0.91,1.969 -1.41,2.457 -0.731,0.848 -1.512,1.574 -2.274,2.238 -1.89,1.653 -3.847,3.114 -5.781,4.586 -1.66,1.27 -3.308,2.446 -4.644,3.77 -0.383,0.484 -0.668,0.633 -0.539,0.566 0.148,-0.176 0.062,-0.554 -0.211,-1.203 -0.465,-0.434 -0.653,-0.621 -0.653,-0.512 1.754,0.481 3.926,0.243 6.383,0.403 0.852,-0.016 2.004,0.168 3.242,0.898 1.262,1.043 1.786,2.375 1.688,3.567 -0.102,0.804 -0.305,1.316 -0.531,1.523 -0.286,0.391 -0.563,0.684 -0.805,0.895 -0.715,0.656 -1.449,1.171 -2.129,1.621 -1.941,1.304 -3.922,2.437 -5.867,3.57 -1.024,0.598 -2.043,1.187 -3.039,1.785 -0.91,0.547 -1.801,1.102 -2.656,1.68 -0.657,0.445 -1.25,0.851 -1.719,1.289 -0.156,0.156 -0.27,0.254 -0.301,0.312 0.004,0.094 0.023,-0.058 0.125,-0.445 -0.352,-1.102 -0.398,-1.5 -0.434,-1.184 0.153,0.114 0.454,0.215 0.856,0.379 1.101,0.414 2.32,0.758 3.59,1.2 1.211,0.398 2.57,0.902 3.89,1.804 0.516,0.317 1.067,0.86 1.535,1.672 0.403,0.899 0.438,1.863 0.114,2.762 -1.082,1.844 -2.59,2.746 -3.692,3.234 -1.847,1.024 -3.761,1.813 -5.648,2.496 -2.074,0.758 -4.191,1.399 -6.34,1.895 -1.711,0.41 -3.551,0.765 -5.516,0.754 -0.093,0.074 0.079,-0.012 0.543,-0.184 0.547,-0.398 0.797,-0.91 0.778,-1.59 -0.289,-0.597 -0.215,-0.781 0,-0.328 0.73,0.742 1.703,1.414 2.722,2.199 1.071,0.809 2.211,1.649 3.317,2.668 0.344,0.282 0.789,0.739 1.219,1.434 0.171,0.184 0.308,0.637 0.347,1.352 -0.191,0.832 -0.629,1.453 -1.265,1.824 0.484,-0.211 0.562,-0.231 0.226,-0.094 -0.066,0.047 -0.148,0.113 -0.254,0.195 -0.34,0.266 -0.687,0.535 -1.051,0.805 -1.203,0.895 -2.464,1.707 -3.777,2.426 -3.918,2.164 -8.355,3.383 -12.82,3.183 -0.414,0.176 -0.574,0.008 0.051,-0.25 0.226,-0.308 0.332,-0.57 0.312,-0.824 -0.039,-0.199 -0.031,-0.262 -0.027,-0.187 0.078,0.222 0.347,0.507 0.679,0.91 0.43,0.488 0.918,0.961 1.438,1.449 1.074,1.016 2.246,2.012 3.394,3.109 0.399,0.368 0.856,0.813 1.297,1.383 0.137,0.149 0.321,0.438 0.504,0.883 0.274,0.301 0.192,0.973 -0.293,1.953 -0.73,0.813 -1.519,1.27 -2.179,1.504 -0.938,0.391 -1.864,0.645 -2.739,0.836 -2.214,0.492 -4.425,0.742 -6.531,0.953 -2.07,0.211 -4.086,0.359 -6.035,0.586 -0.699,0.086 -1.344,0.16 -1.93,0.293 -0.199,0.051 -0.344,0.082 -0.422,0.117 -0.082,0.094 0,-0.011 0.293,-0.265 0.344,-0.805 0.461,-1.18 0.297,-1.164 -0.031,-0.09 -0.019,-0.09 0.016,0.007 0.121,0.266 0.324,0.563 0.555,0.922 0.671,1.012 1.433,2.031 2.179,3.067 0.75,1.043 1.524,2.117 2.215,3.304 0.238,0.395 0.5,0.883 0.707,1.492 0.332,0.204 0.285,1.02 -0.387,2.266 -0.539,0.438 -0.937,0.625 -1.136,0.613 -0.383,0.09 -0.715,0.129 -0.989,0.145 -0.847,0.062 -1.648,0.039 -2.39,0.004 -2.141,-0.086 -4.301,-0.285 -6.305,-0.434 -2.148,-0.156 -4.172,-0.308 -6.168,-0.265 -0.746,0.019 -1.422,0.043 -2.019,0.171 -0.403,0.2 -0.637,0.126 -0.356,0.004 0.16,-0.742 0.328,-0.878 0.227,-0.535 0.089,0.301 0.273,0.645 0.484,1.047 0.578,1.082 1.281,2.176 1.961,3.274 0.637,1.023 1.312,2.082 1.863,3.293 0.176,0.293 0.371,0.808 0.426,1.543 0.066,0.265 -0.066,0.675 -0.422,1.195 -0.519,0.433 -0.957,0.605 -1.273,0.543 -1.313,-0.012 -2.614,-0.082 -3.848,-0.145 -2.113,-0.105 -4.168,-0.234 -6.184,-0.402 -2.007,-0.168 -3.937,-0.352 -5.875,-0.68 -0.656,-0.109 -1.351,-0.242 -2.066,-0.476 -0.219,-0.067 -0.492,-0.176 -0.801,-0.356 -0.207,-0.023 -0.484,-0.347 -0.75,-0.988 -1.593,-7.629 -2.168,-16.559 -2.605,-21.871 -0.406,-4.942 -0.621,-7.637 -0.981,-11.203 -0.613,-6.02 -1.261,-9.2 -1.07,-9.246 z"
       style="fill:#1b1f23;fill-opacity:1;fill-rule:nonzero;stroke:#f6f8fa;stroke-width:0.75;stroke-linecap:round;stroke-linejoin:round;stroke-dasharray:none;stroke-opacity:1;paint-order:stroke fill markers"
       transform="scale(1.3333333)" />
    <path
       id="path26"
       d="m 391.91,108.867 c 0.047,-0.07 0.344,0.059 0.856,0.227 0.019,0.082 0.019,0.172 -0.008,0.25 0.015,0.015 0.043,0.035 0.031,0.027 -0.012,-0.008 -0.051,-0.008 -0.086,-0.008 -0.07,0 -0.144,0.008 -0.23,0.02 -0.153,-0.11 -0.313,-0.207 -0.512,-0.324 -0.399,-0.235 -0.906,-0.512 -1.457,-0.719 -0.406,-0.113 -0.82,-0.309 -0.953,-0.164 -3.93,1.308 -7.395,2.965 -13.305,6.211 -2.949,1.625 -5.945,3.371 -9.195,5.34 -1.981,1.199 -3.934,2.402 -5.778,3.546 -5.074,3.153 -9.566,6.008 -13.074,8.125 -1.941,1.172 -3.383,2.008 -4.703,2.7 -0.684,0.359 -1.223,0.617 -1.691,0.812 -0.743,0.309 -1.176,0.387 -1.215,0.285 -0.031,-0.078 0.312,-0.332 0.937,-0.781 0.391,-0.281 0.895,-0.641 1.504,-1.074 0.508,-0.36 3.242,-2.309 4.399,-3.121 3.121,-2.196 7.961,-5.531 12.781,-8.629 1.84,-1.184 3.781,-2.402 5.781,-3.613 3.258,-1.969 6.348,-3.719 9.352,-5.278 5.828,-3.035 9.91,-4.703 13.871,-5.605 0.773,-0.164 1.359,0.129 1.695,0.355 0.602,0.317 1.102,0.692 1.477,1.012 0.183,0.156 0.343,0.305 0.492,0.457 0.019,0.102 0.039,0.199 0.059,0.293 0.011,0.051 0.027,0.098 0.019,0.156 -0.004,0.035 -0.043,0.047 -0.066,0.055 -0.157,0.047 -0.254,0.074 -0.344,0.105 -0.5,-0.339 -0.68,-0.589 -0.637,-0.66 z"
       style="fill:#1b1f23;fill-opacity:1;fill-rule:nonzero;stroke:#f6f8fa;stroke-width:0.75;stroke-linecap:round;stroke-linejoin:round;stroke-dasharray:none;stroke-opacity:1;paint-order:stroke fill markers"
       transform="scale(1.3333333)" />
    <path
       id="path27"
       d="m 382.922,62.559 c 0.266,-0.039 0.89,3.324 2.734,9.148 1.848,5.824 5.34,14.012 9.156,24.398 1.801,4.883 3.735,10.696 4.747,16.84 0.898,5.45 1.039,11.5 -0.305,17.571 -0.473,1.851 -1.34,3.472 -2.309,4.91 -1.027,1.547 -2.133,2.929 -3.211,4.328 -1.007,1.316 -1.992,2.601 -2.711,3.937 -0.91,0.852 -1.714,1.688 -2,2.407 2.672,-0.52 5.336,-1.778 7.668,-3.672 2.688,-1.582 5.063,-3.797 7.149,-6.348 1.226,-1.5 2.34,-3.098 3.355,-4.781 2.907,-4.809 4.938,-10.18 6.5,-15.477 2.336,-8.015 3.508,-16.039 3.809,-23.699 0.144,-3.648 0.082,-7.16 -0.254,-10.574 -0.281,-2.918 -0.719,-5.656 -1.547,-8.211 -2.785,-5.902 -4.629,-10.488 -7.644,-15.059 -1.516,-2.297 -3.106,-4.261 -4.961,-5.793 -1.938,-1.605 -4.094,-2.644 -6.235,-3.046 -3.734,-0.649 -7.175,0.925 -9.215,2.781 -4.808,4.347 -4.328,9.101 -4.613,9.101 -0.285,0 -1.574,-4.933 3.504,-10.238 2.203,-2.293 6.059,-4.359 10.66,-3.812 2.559,0.378 5.149,1.472 7.461,3.257 2.164,1.676 4.02,3.785 5.695,6.196 3.333,4.797 5.438,9.597 8.305,15.41 1,2.902 1.57,5.933 1.934,9.058 0.41,3.59 0.531,7.266 0.429,11.043 -0.211,7.938 -1.355,16.27 -3.746,24.621 -1.562,5.52 -3.711,11.192 -6.863,16.391 -1.102,1.82 -2.312,3.563 -3.648,5.211 -2.305,2.836 -5.028,5.328 -8.18,7.188 -3.512,1.543 -7.379,2.332 -11.266,2.285 -0.289,-2.254 0.02,-4.282 0.52,-5.992 0.922,-1.641 2.019,-3.075 3.062,-4.387 1.118,-1.43 2.188,-2.727 3.11,-4.09 0.851,-1.277 1.57,-2.504 1.871,-3.754 1.32,-5.5 1.277,-11.133 0.547,-16.281 -0.825,-5.832 -2.567,-11.547 -4.188,-16.418 -4.258,-12.742 -6.035,-16.446 -8.031,-24.903 -1.426,-6.039 -1.555,-9.507 -1.289,-9.546 z"
       style="fill:#1b1f23;fill-opacity:1;fill-rule:nonzero;stroke:#f6f8fa;stroke-width:0.75;stroke-linecap:round;stroke-linejoin:round;stroke-dasharray:none;stroke-opacity:1;paint-order:stroke fill markers"
       transform="scale(1.3333333)" />
    <path
       id="path28"
       d="m 380.242,61.562 c -0.418,0 -1.105,-1.554 -0.738,-4.328 0.355,-2.683 1.836,-6.55 5.601,-9.214 0.477,-0.309 0.969,-0.59 1.481,-0.836 4.398,-2.145 8.894,-1.508 11.695,-0.512 2.895,1.031 4.196,2.387 4.008,2.793 -0.227,0.508 -1.941,0.121 -4.625,-0.149 -2.586,-0.265 -6.344,-0.437 -9.414,1.176 -0.363,0.196 -0.711,0.406 -1.043,0.641 -2.773,1.746 -4.324,4.594 -5.227,6.746 -0.902,2.152 -1.246,3.68 -1.738,3.683 z"
       style="fill:#1b1f23;fill-opacity:1;fill-rule:nonzero;stroke:#f6f8fa;stroke-width:0.75;stroke-linecap:round;stroke-linejoin:round;stroke-dasharray:none;stroke-opacity:1;paint-order:stroke fill markers"
       transform="scale(1.3333333)" />
    <path
       id="path29"
       d="m 380.16,62.441 c 0.727,0.016 0.985,7.301 4.11,17.325 1.468,4.711 3.097,8.871 5.238,14.457 0.222,0.578 0.441,1.152 0.66,1.726 2.246,5.899 3.93,10.774 4.93,15.86 1.91,9.621 -0.219,15.671 -0.848,15.558 -0.652,-0.121 0.102,-6.195 -2.238,-14.84 -1.34,-4.933 -3.028,-9.172 -5.364,-15.23 -0.218,-0.57 -0.441,-1.145 -0.664,-1.723 -2.082,-5.429 -3.738,-10.117 -4.937,-14.906 -2.703,-10.789 -1.621,-18.242 -0.887,-18.227 z"
       style="fill:#1b1f23;fill-opacity:1;fill-rule:nonzero;stroke:#f6f8fa;stroke-width:0.75;stroke-linecap:round;stroke-linejoin:round;stroke-dasharray:none;stroke-opacity:1;paint-order:stroke fill markers"
       transform="scale(1.3333333)" />
    <path
       id="path30"
       d="m 408.484,97.258 c -0.086,-0.715 7.047,-1.406 14.575,-6.946 3.425,-2.496 6.644,-5.984 9.253,-10.464 0,0 0.032,-0.051 0.032,-0.051 4.14,-7.102 5.808,-14.832 6.742,-20.293 0.949,-5.551 1.289,-9.094 1.809,-9.094 0.523,0 1.148,3.555 0.855,9.383 -0.293,5.832 -1.629,14.016 -6.141,21.891 0,0 -0.031,0.058 -0.031,0.058 -2.879,4.969 -6.644,8.762 -10.648,11.32 -8.84,5.61 -16.36,4.907 -16.446,4.196 z"
       style="fill:#ff0000;fill-opacity:1;fill-rule:nonzero;stroke:#f6f8fa;stroke-width:0.75;stroke-linecap:round;stroke-linejoin:round;stroke-dasharray:none;stroke-opacity:1;paint-order:stroke fill markers"
       transform="scale(1.3333333)" />
    <path
       id="path31"
       d="m 436.211,49.438 c -0.461,-0.778 1.328,-2.977 4.82,-4.817 0.5,-0.273 1.164,-0.566 2.016,-0.742 0.023,-0.008 0.047,-0.012 0.07,-0.02 0.563,-0.136 1.305,-0.054 2.141,0.301 0.793,0.496 1.242,1.047 1.43,1.539 0.308,0.664 0.453,1.254 0.531,1.715 0.527,2.758 0.34,4.77 -0.289,4.988 -0.797,0.278 -1.899,-1.461 -2.985,-4 -0.183,-0.406 -0.332,-0.777 -0.488,-0.984 -0.121,-0.09 -0.09,-0.106 0.098,0.078 0.211,0.051 0.332,0.133 0.183,0.098 -0.004,0 -0.008,0 -0.015,-0.004 -0.27,0.031 -0.664,0.203 -1.133,0.379 -3.164,1.258 -5.918,2.246 -6.379,1.469 z"
       style="fill:#ff0000;fill-opacity:1;fill-rule:nonzero;stroke:#f6f8fa;stroke-width:0.75;stroke-linecap:round;stroke-linejoin:round;stroke-dasharray:none;stroke-opacity:1;paint-order:stroke fill markers"
       transform="scale(1.3333333)" />
    <path
       id="path32"
       d="m 410.352,91.762 c 0.246,0.328 0.039,0.922 -0.434,1.699 -0.414,0.676 -1.23,1.715 -1.391,2.516 -0.007,0.175 -0.023,0.269 0.028,0.203 -0.028,-0.035 0.07,0.039 0.179,0.207 0.036,0.043 0.075,0.09 0.114,0.133 0.5,0.554 1.34,1.078 2.129,1.742 2.179,1.758 3.32,3.457 2.781,4.086 -0.442,0.515 -2.313,-0.028 -4.641,-1.196 -0.82,-0.379 -1.953,-0.972 -3,-2.047 -0.082,-0.085 -0.164,-0.175 -0.246,-0.269 -0.445,-0.477 -0.789,-1.16 -0.957,-1.992 -0.113,-0.961 0.082,-1.754 0.426,-2.344 1.012,-1.668 2.363,-2.438 3.226,-2.754 0.911,-0.328 1.563,-0.285 1.786,0.016 z"
       style="fill:#ff0000;fill-opacity:1;fill-rule:nonzero;stroke:#f6f8fa;stroke-width:0.75;stroke-linecap:round;stroke-linejoin:round;stroke-dasharray:none;stroke-opacity:1;paint-order:stroke fill markers"
       transform="scale(1.3333333)" />
    <path
       id="path33"
       d="m 399.07,92.465 c 0.914,-0.5 3.133,1.781 4.953,5.097 1.821,3.313 2.555,6.411 1.641,6.915 -0.91,0.5 -3.129,-1.786 -4.949,-5.098 -1.82,-3.317 -2.555,-6.414 -1.645,-6.914 z"
       style="fill:#ff0000;fill-opacity:1;fill-rule:nonzero;stroke:#f6f8fa;stroke-width:0.75;stroke-linecap:round;stroke-linejoin:round;stroke-dasharray:none;stroke-opacity:1;paint-order:stroke fill markers"
       transform="scale(1.3333333)" />
    <path
       id="path34"
       d="m 438.414,38.91 c 0.387,-0.965 3.383,-0.676 6.691,0.649 3.305,1.324 5.676,3.187 5.29,4.152 -0.391,0.969 -3.387,0.676 -6.692,-0.649 -3.308,-1.324 -5.676,-3.183 -5.289,-4.152 z"
       style="fill:#ff0000;fill-opacity:1;fill-rule:nonzero;stroke:#f6f8fa;stroke-width:0.75;stroke-linecap:round;stroke-linejoin:round;stroke-dasharray:none;stroke-opacity:1;paint-order:stroke fill markers"
       transform="scale(1.3333333)" />
    <path
       id="path35"
       d="m 352.73,147.188 c 0.52,-0.059 1.633,4.253 2.11,11.453 0.465,7.097 0.195,17.418 -3.59,27.836 -0.285,0.781 -0.582,1.554 -0.898,2.316 -2.641,6.316 -6.301,11.441 -10.227,15.328 -8.309,8.211 -16.086,10.395 -16.383,9.781 -0.297,-0.617 6.785,-3.902 14.051,-12.007 3.437,-3.829 6.66,-8.668 9.078,-14.543 0.297,-0.715 0.578,-1.434 0.848,-2.168 3.554,-9.668 4.23,-19.586 4.437,-26.493 0.211,-7.035 0.059,-11.449 0.574,-11.503 z"
       style="fill:#ff0000;fill-opacity:1;fill-rule:nonzero;stroke:#f6f8fa;stroke-width:0.75;stroke-linecap:round;stroke-linejoin:round;stroke-dasharray:none;stroke-opacity:1;paint-order:stroke fill markers"
       transform="scale(1.3333333)" />
    <path
       id="path36"
       d="m 347.93,150.535 c -0.789,-0.344 -0.715,-3.203 1.55,-6.578 0.403,-0.738 1.11,-1.574 2.227,-2.176 0.488,-0.265 1.035,-0.472 1.641,-0.609 2.066,-0.059 3.39,0.93 4,1.941 1.953,2.848 1.613,5.004 0.925,5.262 -0.687,0.258 -1.789,-1.648 -3.484,-3.074 -0.527,-0.305 -0.93,-0.637 -0.883,-0.426 -0.094,-0.031 -0.195,0.012 -0.324,0.109 -0.293,0.219 -0.699,0.711 -1.219,1.176 -2.121,2.36 -3.64,4.715 -4.433,4.375 z"
       style="fill:#ff0000;fill-opacity:1;fill-rule:nonzero;stroke:#f6f8fa;stroke-width:0.75;stroke-linecap:round;stroke-linejoin:round;stroke-dasharray:none;stroke-opacity:1;paint-order:stroke fill markers"
       transform="scale(1.3333333)" />
    <path
       id="path37"
       d="m 322.777,208.566 c 0.27,0.313 -0.015,1.016 -0.621,1.996 -0.523,0.848 -1.59,2.309 -2.051,3.571 -0.171,0.633 -0.308,1.367 -0.027,1.531 0.008,0.012 0.012,0.027 0.02,0.039 0.312,0.629 1.394,1.207 2.351,1.84 2.809,1.684 5.082,2.945 4.84,3.68 -0.242,0.73 -2.797,0.8 -6.336,-0.563 -1.195,-0.398 -2.793,-1.199 -4.012,-2.906 -0.019,-0.031 -0.043,-0.063 -0.066,-0.094 -1.008,-1.93 -0.715,-3.832 0.086,-5.117 1.156,-1.906 2.691,-3.027 3.719,-3.578 1.074,-0.578 1.847,-0.692 2.097,-0.399 z"
       style="fill:#ff0000;fill-opacity:1;fill-rule:nonzero;stroke:#f6f8fa;stroke-width:0.75;stroke-linecap:round;stroke-linejoin:round;stroke-dasharray:none;stroke-opacity:1;paint-order:stroke fill markers"
       transform="scale(1.3333333)" />
    <path
       id="path38"
       d="m 303.812,212.609 c 1.086,-0.121 2.934,10.086 4.211,22.555 0.676,6.574 1.102,12.754 1.258,17.066 2.793,1.832 4.543,3.379 4.281,3.809 -0.261,0.434 -2.484,-0.449 -6.21,-2.578 -0.782,-4.055 -1.739,-10.242 -2.563,-17.07 -1.586,-13.11 -2.059,-23.661 -0.977,-23.782 z"
       style="fill:#1b1f23;fill-opacity:1;fill-rule:nonzero;stroke:#f6f8fa;stroke-width:0.75;stroke-linecap:round;stroke-linejoin:round;stroke-dasharray:none;stroke-opacity:1;paint-order:stroke fill markers"
       transform="scale(1.3333333)" />
    <path
       id="path39"
       d="m 195.344,121.496 c 1.039,-0.047 3.16,28.734 4.734,64.238 1.574,35.508 2.008,64.364 0.969,64.411 -1.039,0.043 -3.164,-28.735 -4.738,-64.243 -1.575,-35.507 -2.008,-64.359 -0.965,-64.406 z"
       style="fill:#1b1f23;fill-opacity:1;fill-rule:nonzero;stroke:#f6f8fa;stroke-width:0.75;stroke-linecap:round;stroke-linejoin:round;stroke-dasharray:none;stroke-opacity:1;paint-order:stroke fill markers"
       transform="scale(1.3333333)" />
    <path
       id="path40"
       d="m 402.891,66.125 c -0.426,-0.125 -0.5,-1.293 -1.414,-2.199 -0.442,-0.442 -1.079,-0.848 -1.809,-1.008 -0.551,-0.106 -1.215,-0.07 -1.617,0.215 -0.567,0.234 -0.977,1.023 -1.41,2 -0.008,0.023 -0.012,0.047 -0.02,0.07 -0.187,0.758 -0.215,1.496 0.102,1.828 0.281,0.539 1.039,0.946 1.75,1.219 0.945,0.277 1.672,0.383 2.308,0.234 0.887,-0.039 1.328,-1.144 1.754,-1.195 0.422,-0.051 1.438,1.777 -0.765,3.234 -1.012,0.645 -2.418,1 -3.938,0.754 -1.277,-0.14 -2.766,-0.742 -3.93,-2.117 -1.078,-1.515 -1.355,-3.398 -0.789,-5.094 0.02,-0.05 0.035,-0.101 0.055,-0.152 0.523,-1.629 1.687,-3.094 3.367,-3.937 1.527,-0.641 3.047,-0.493 4.211,0.043 1.395,0.628 2.274,1.691 2.715,2.675 1.184,2.586 -0.504,3.453 -0.57,3.43 z"
       style="fill:#1b1f23;fill-opacity:1;fill-rule:nonzero;stroke:#f6f8fa;stroke-width:0.75;stroke-linecap:round;stroke-linejoin:round;stroke-dasharray:none;stroke-opacity:1;paint-order:stroke fill markers"
       transform="scale(1.3333333)" />
    <path
       id="path41"
       d="m 200.078,142.98 c -0.937,-0.339 -0.066,-3.957 1.945,-8.078 2.004,-4.121 4.395,-7.187 5.332,-6.847 0.934,0.34 0.063,3.957 -1.945,8.078 -2.012,4.117 -4.394,7.187 -5.332,6.847 z"
       style="fill:#1b1f23;fill-opacity:1;fill-rule:nonzero;stroke:#f6f8fa;stroke-width:0.75;stroke-linecap:round;stroke-linejoin:round;stroke-dasharray:none;stroke-opacity:1;paint-order:stroke fill markers"
       transform="scale(1.3333333)" />
    <path
       id="path42"
       d="m 201.367,144.785 c 0.375,-1.262 3.227,-0.597 6.367,1.485 3.145,2.082 5.387,4.8 5.012,6.066 -0.379,1.262 -3.23,0.598 -6.371,-1.484 -3.141,-2.082 -5.387,-4.801 -5.008,-6.067 z"
       style="fill:#1b1f23;fill-opacity:1;fill-rule:nonzero;stroke:#f6f8fa;stroke-width:0.75;stroke-linecap:round;stroke-linejoin:round;stroke-dasharray:none;stroke-opacity:1;paint-order:stroke fill markers"
       transform="scale(1.3333333)" />
  </g>
</svg>
