<?xml version="1.0" encoding="UTF-8" standalone="no"?>
<!-- Created with Inkscape (http://www.inkscape.org/) -->

<svg
   version="1.1"
   id="svg2"
   xml:space="preserve"
   width="2489.1385"
   height="4297.1765"
   viewBox="0 0 248.91385 429.71765"
   sodipodi:docname="futterschacht_locked.svg"
   inkscape:version="1.1 (c4e8f9ed74, 2021-05-24)"
   xmlns:inkscape="http://www.inkscape.org/namespaces/inkscape"
   xmlns:sodipodi="http://sodipodi.sourceforge.net/DTD/sodipodi-0.dtd"
   xmlns="http://www.w3.org/2000/svg"
   xmlns:svg="http://www.w3.org/2000/svg"><defs
     id="defs6"><inkscape:path-effect
       effect="skeletal"
       id="path-effect7648"
       is_visible="true"
       lpeversion="1"
       pattern="m 0.35809583,17.604867 c 0,-10.4150948 8.45283017,-18.867925 18.86792517,-18.867925 10.415094,0 18.867924,8.4528302 18.867924,18.867925 0,10.415094 -8.45283,18.867924 -18.867924,18.867924 -10.415095,0 -18.86792517,-8.45283 -18.86792517,-18.867924 z"
       copytype="single_stretched"
       prop_scale="0.1"
       scale_y_rel="false"
       spacing="0"
       normal_offset="0"
       tang_offset="0"
       prop_units="false"
       vertical_pattern="false"
       hide_knot="false"
       fuse_tolerance="0" /><inkscape:path-effect
       effect="skeletal"
       id="path-effect7644"
       is_visible="true"
       lpeversion="1"
       pattern="m 1.0493351,17.72083 c 0,-10.4150952 8.4528302,-18.8679254 18.8679249,-18.8679254 10.415094,0 18.867924,8.4528302 18.867924,18.8679254 0,10.415094 -8.45283,18.867924 -18.867924,18.867924 -10.4150947,0 -18.8679249,-8.45283 -18.8679249,-18.867924 z"
       copytype="single_stretched"
       prop_scale="0.1"
       scale_y_rel="false"
       spacing="0"
       normal_offset="0"
       tang_offset="0"
       prop_units="false"
       vertical_pattern="false"
       hide_knot="false"
       fuse_tolerance="0" /><inkscape:path-effect
       effect="skeletal"
       id="path-effect7640"
       is_visible="true"
       lpeversion="1"
       pattern="m 1.3085262,19.453589 c 0,-10.4150948 8.4528302,-18.86792504 18.8679248,-18.86792504 10.415094,0 18.867924,8.45283024 18.867924,18.86792504 0,10.415094 -8.45283,18.867924 -18.867924,18.867924 -10.4150946,0 -18.8679248,-8.45283 -18.8679248,-18.867924 z"
       copytype="single_stretched"
       prop_scale="0.1"
       scale_y_rel="false"
       spacing="0"
       normal_offset="0"
       tang_offset="0"
       prop_units="false"
       vertical_pattern="false"
       hide_knot="false"
       fuse_tolerance="0" /><inkscape:path-effect
       effect="skeletal"
       id="path-effect7636"
       is_visible="true"
       lpeversion="1"
       pattern="M 0,18.867925 C 0,8.4528302 8.4528302,0 18.867925,0 c 10.415094,0 18.867924,8.4528302 18.867924,18.867925 0,10.415094 -8.45283,18.867924 -18.867924,18.867924 C 8.4528302,37.735849 0,29.283019 0,18.867925 Z"
       copytype="single_stretched"
       prop_scale="0.1"
       scale_y_rel="false"
       spacing="0"
       normal_offset="0"
       tang_offset="0"
       prop_units="false"
       vertical_pattern="false"
       hide_knot="false"
       fuse_tolerance="0" /><inkscape:path-effect
       effect="skeletal"
       id="path-effect7632"
       is_visible="true"
       lpeversion="1"
       pattern="m -0.40764226,18.17805 c 0,-10.4150945 8.45283016,-18.86792468 18.86792526,-18.86792468 10.415094,0 18.867924,8.45283018 18.867924,18.86792468 0,10.415094 -8.45283,18.867924 -18.867924,18.867924 -10.4150951,0 -18.86792526,-8.45283 -18.86792526,-18.867924 z"
       copytype="single_stretched"
       prop_scale="0.1"
       scale_y_rel="false"
       spacing="0"
       normal_offset="0"
       tang_offset="0"
       prop_units="false"
       vertical_pattern="false"
       hide_knot="false"
       fuse_tolerance="0" /><inkscape:path-effect
       effect="skeletal"
       id="path-effect7628"
       is_visible="true"
       lpeversion="1"
       pattern="m -175.63137,17.996295 c 0,-10.4150945 10.36531,-18.86792471 23.13687,-18.86792471 12.77155,0 23.13687,8.45283021 23.13687,18.86792471 0,10.415094 -10.36532,18.867924 -23.13687,18.867924 -12.77156,0 -23.13687,-8.45283 -23.13687,-18.867924 z"
       copytype="single_stretched"
       prop_scale="0.1"
       scale_y_rel="false"
       spacing="0"
       normal_offset="0"
       tang_offset="0"
       prop_units="false"
       vertical_pattern="false"
       hide_knot="false"
       fuse_tolerance="0" /><inkscape:path-effect
       effect="skeletal"
       id="path-effect7624"
       is_visible="true"
       lpeversion="1"
       pattern="m 1.124661,17.769788 c 0,-10.4150949 8.4528302,-18.8679251 18.867925,-18.8679251 10.415094,0 18.867924,8.4528302 18.867924,18.8679251 0,10.415094 -8.45283,18.867924 -18.867924,18.867924 -10.4150948,0 -18.867925,-8.45283 -18.867925,-18.867924 z"
       copytype="single_stretched"
       prop_scale="0.1"
       scale_y_rel="false"
       spacing="0"
       normal_offset="0"
       tang_offset="0"
       prop_units="false"
       vertical_pattern="false"
       hide_knot="false"
       fuse_tolerance="0" /><inkscape:path-effect
       effect="skeletal"
       id="path-effect7583"
       is_visible="true"
       lpeversion="1"
       pattern="M 0,18.867925 C 0,8.4528302 8.4528302,0 18.867925,0 c 10.415094,0 18.867924,8.4528302 18.867924,18.867925 0,10.415094 -8.45283,18.867924 -18.867924,18.867924 C 8.4528302,37.735849 0,29.283019 0,18.867925 Z"
       copytype="single_stretched"
       prop_scale="0.1"
       scale_y_rel="false"
       spacing="0"
       normal_offset="0"
       tang_offset="0"
       prop_units="false"
       vertical_pattern="false"
       hide_knot="false"
       fuse_tolerance="0" /><inkscape:path-effect
       effect="skeletal"
       id="path-effect7579"
       is_visible="true"
       lpeversion="1"
       pattern="M 0,18.867925 C 0,8.4528302 8.4528302,0 18.867925,0 c 10.415094,0 18.867924,8.4528302 18.867924,18.867925 0,10.415094 -8.45283,18.867924 -18.867924,18.867924 C 8.4528302,37.735849 0,29.283019 0,18.867925 Z"
       copytype="single_stretched"
       prop_scale="0.1"
       scale_y_rel="false"
       spacing="0"
       normal_offset="0"
       tang_offset="0"
       prop_units="false"
       vertical_pattern="false"
       hide_knot="false"
       fuse_tolerance="0" /><inkscape:path-effect
       effect="skeletal"
       id="path-effect7575"
       is_visible="true"
       lpeversion="1"
       pattern="M 0,18.867925 C 0,8.4528302 8.4528302,0 18.867925,0 c 10.415094,0 18.867924,8.4528302 18.867924,18.867925 0,10.415094 -8.45283,18.867924 -18.867924,18.867924 C 8.4528302,37.735849 0,29.283019 0,18.867925 Z"
       copytype="single_stretched"
       prop_scale="0.1"
       scale_y_rel="false"
       spacing="0"
       normal_offset="0"
       tang_offset="0"
       prop_units="false"
       vertical_pattern="false"
       hide_knot="false"
       fuse_tolerance="0" /><inkscape:path-effect
       effect="skeletal"
       id="path-effect6704"
       is_visible="true"
       lpeversion="1"
       pattern="M 0,18.867925 C 0,8.4528302 8.4528302,0 18.867925,0 c 10.415094,0 18.867924,8.4528302 18.867924,18.867925 0,10.415094 -8.45283,18.867924 -18.867924,18.867924 C 8.4528302,37.735849 0,29.283019 0,18.867925 Z"
       copytype="single_stretched"
       prop_scale="0.1"
       scale_y_rel="false"
       spacing="0"
       normal_offset="0"
       tang_offset="0"
       prop_units="false"
       vertical_pattern="false"
       hide_knot="false"
       fuse_tolerance="0" /><inkscape:path-effect
       effect="skeletal"
       id="path-effect6700"
       is_visible="true"
       lpeversion="1"
       pattern="M 0,18.867925 C 0,8.4528302 8.4528302,0 18.867925,0 c 10.415094,0 18.867924,8.4528302 18.867924,18.867925 0,10.415094 -8.45283,18.867924 -18.867924,18.867924 C 8.4528302,37.735849 0,29.283019 0,18.867925 Z"
       copytype="single_stretched"
       prop_scale="0.1"
       scale_y_rel="false"
       spacing="0"
       normal_offset="0"
       tang_offset="0"
       prop_units="false"
       vertical_pattern="false"
       hide_knot="false"
       fuse_tolerance="0" /><inkscape:path-effect
       effect="skeletal"
       id="path-effect6659"
       is_visible="true"
       lpeversion="1"
       pattern="M 0,18.867925 C 0,8.4528302 8.4528302,0 18.867925,0 c 10.415094,0 18.867924,8.4528302 18.867924,18.867925 0,10.415094 -8.45283,18.867924 -18.867924,18.867924 C 8.4528302,37.735849 0,29.283019 0,18.867925 Z"
       copytype="single_stretched"
       prop_scale="0.1"
       scale_y_rel="false"
       spacing="0"
       normal_offset="0"
       tang_offset="0"
       prop_units="false"
       vertical_pattern="false"
       hide_knot="false"
       fuse_tolerance="0" /><inkscape:path-effect
       effect="skeletal"
       id="path-effect6655"
       is_visible="true"
       lpeversion="1"
       pattern="M 0,18.867925 C 0,8.4528302 8.4528302,0 18.867925,0 c 10.415094,0 18.867924,8.4528302 18.867924,18.867925 0,10.415094 -8.45283,18.867924 -18.867924,18.867924 C 8.4528302,37.735849 0,29.283019 0,18.867925 Z"
       copytype="single_stretched"
       prop_scale="0.1"
       scale_y_rel="false"
       spacing="0"
       normal_offset="0"
       tang_offset="0"
       prop_units="false"
       vertical_pattern="false"
       hide_knot="false"
       fuse_tolerance="0" /><inkscape:path-effect
       effect="skeletal"
       id="path-effect6651"
       is_visible="true"
       lpeversion="1"
       pattern="M 0,18.867925 C 0,8.4528302 8.4528302,0 18.867925,0 c 10.415094,0 18.867924,8.4528302 18.867924,18.867925 0,10.415094 -8.45283,18.867924 -18.867924,18.867924 C 8.4528302,37.735849 0,29.283019 0,18.867925 Z"
       copytype="single_stretched"
       prop_scale="0.1"
       scale_y_rel="false"
       spacing="0"
       normal_offset="0"
       tang_offset="0"
       prop_units="false"
       vertical_pattern="false"
       hide_knot="false"
       fuse_tolerance="0" /><inkscape:path-effect
       effect="skeletal"
       id="path-effect6647"
       is_visible="true"
       lpeversion="1"
       pattern="M 0,18.867925 C 0,8.4528302 8.4528302,0 18.867925,0 c 10.415094,0 18.867924,8.4528302 18.867924,18.867925 0,10.415094 -8.45283,18.867924 -18.867924,18.867924 C 8.4528302,37.735849 0,29.283019 0,18.867925 Z"
       copytype="single_stretched"
       prop_scale="0.1"
       scale_y_rel="false"
       spacing="0"
       normal_offset="0"
       tang_offset="0"
       prop_units="false"
       vertical_pattern="false"
       hide_knot="false"
       fuse_tolerance="0" /><inkscape:path-effect
       effect="skeletal"
       id="path-effect6639"
       is_visible="true"
       lpeversion="1"
       pattern="M 0,18.867925 C 0,8.4528302 8.4528302,0 18.867925,0 c 10.415094,0 18.867924,8.4528302 18.867924,18.867925 0,10.415094 -8.45283,18.867924 -18.867924,18.867924 C 8.4528302,37.735849 0,29.283019 0,18.867925 Z"
       copytype="single_stretched"
       prop_scale="0.1"
       scale_y_rel="false"
       spacing="0"
       normal_offset="0"
       tang_offset="0"
       prop_units="false"
       vertical_pattern="false"
       hide_knot="false"
       fuse_tolerance="0" /><inkscape:path-effect
       effect="skeletal"
       id="path-effect6635"
       is_visible="true"
       lpeversion="1"
       pattern="M 0,18.867925 C 0,8.4528302 8.4528302,0 18.867925,0 c 10.415094,0 18.867924,8.4528302 18.867924,18.867925 0,10.415094 -8.45283,18.867924 -18.867924,18.867924 C 8.4528302,37.735849 0,29.283019 0,18.867925 Z"
       copytype="single_stretched"
       prop_scale="0.1"
       scale_y_rel="false"
       spacing="0"
       normal_offset="0"
       tang_offset="0"
       prop_units="false"
       vertical_pattern="false"
       hide_knot="false"
       fuse_tolerance="0" /><inkscape:path-effect
       effect="skeletal"
       id="path-effect6631"
       is_visible="true"
       lpeversion="1"
       pattern="M 0,18.867925 C 0,8.4528302 8.4528302,0 18.867925,0 c 10.415094,0 18.867924,8.4528302 18.867924,18.867925 0,10.415094 -8.45283,18.867924 -18.867924,18.867924 C 8.4528302,37.735849 0,29.283019 0,18.867925 Z"
       copytype="single_stretched"
       prop_scale="0.1"
       scale_y_rel="false"
       spacing="0"
       normal_offset="0"
       tang_offset="0"
       prop_units="false"
       vertical_pattern="false"
       hide_knot="false"
       fuse_tolerance="0" /><inkscape:path-effect
       effect="skeletal"
       id="path-effect6590"
       is_visible="true"
       lpeversion="1"
       pattern="M 0,18.867925 C 0,8.4528302 8.4528302,0 18.867925,0 c 10.415094,0 18.867924,8.4528302 18.867924,18.867925 0,10.415094 -8.45283,18.867924 -18.867924,18.867924 C 8.4528302,37.735849 0,29.283019 0,18.867925 Z"
       copytype="single_stretched"
       prop_scale="0.1"
       scale_y_rel="false"
       spacing="0"
       normal_offset="0"
       tang_offset="0"
       prop_units="false"
       vertical_pattern="false"
       hide_knot="false"
       fuse_tolerance="0" /><inkscape:path-effect
       effect="skeletal"
       id="path-effect6586"
       is_visible="true"
       lpeversion="1"
       pattern="M 0,18.867925 C 0,8.4528302 8.4528302,0 18.867925,0 c 10.415094,0 18.867924,8.4528302 18.867924,18.867925 0,10.415094 -8.45283,18.867924 -18.867924,18.867924 C 8.4528302,37.735849 0,29.283019 0,18.867925 Z"
       copytype="single_stretched"
       prop_scale="0.1"
       scale_y_rel="false"
       spacing="0"
       normal_offset="0"
       tang_offset="0"
       prop_units="false"
       vertical_pattern="false"
       hide_knot="false"
       fuse_tolerance="0" /><inkscape:path-effect
       effect="skeletal"
       id="path-effect6312"
       is_visible="true"
       lpeversion="1"
       pattern="M 0,18.867925 C 0,8.4528302 8.4528302,0 18.867925,0 c 10.415094,0 18.867924,8.4528302 18.867924,18.867925 0,10.415094 -8.45283,18.867924 -18.867924,18.867924 C 8.4528302,37.735849 0,29.283019 0,18.867925 Z"
       copytype="single_stretched"
       prop_scale="0.1"
       scale_y_rel="false"
       spacing="0"
       normal_offset="0"
       tang_offset="0"
       prop_units="false"
       vertical_pattern="false"
       hide_knot="false"
       fuse_tolerance="0" /><inkscape:path-effect
       effect="skeletal"
       id="path-effect6063"
       is_visible="true"
       lpeversion="1"
       pattern="M 0,18.867925 C 0,8.4528302 8.4528302,0 18.867925,0 c 10.415094,0 18.867924,8.4528302 18.867924,18.867925 0,10.415094 -8.45283,18.867924 -18.867924,18.867924 C 8.4528302,37.735849 0,29.283019 0,18.867925 Z"
       copytype="single_stretched"
       prop_scale="0.1"
       scale_y_rel="false"
       spacing="0"
       normal_offset="0"
       tang_offset="0"
       prop_units="false"
       vertical_pattern="false"
       hide_knot="false"
       fuse_tolerance="0" /><inkscape:path-effect
       effect="skeletal"
       id="path-effect6018"
       is_visible="true"
       lpeversion="1"
       pattern="M 0,18.867925 C 0,8.4528302 8.4528302,0 18.867925,0 c 10.415094,0 18.867924,8.4528302 18.867924,18.867925 0,10.415094 -8.45283,18.867924 -18.867924,18.867924 C 8.4528302,37.735849 0,29.283019 0,18.867925 Z"
       copytype="single_stretched"
       prop_scale="0.1"
       scale_y_rel="false"
       spacing="0"
       normal_offset="0"
       tang_offset="0"
       prop_units="false"
       vertical_pattern="false"
       hide_knot="false"
       fuse_tolerance="0" /><inkscape:path-effect
       effect="skeletal"
       id="path-effect6010"
       is_visible="true"
       lpeversion="1"
       pattern="M 0,18.867925 C 0,8.4528302 8.4528302,0 18.867925,0 c 10.415094,0 18.867924,8.4528302 18.867924,18.867925 0,10.415094 -8.45283,18.867924 -18.867924,18.867924 C 8.4528302,37.735849 0,29.283019 0,18.867925 Z"
       copytype="single_stretched"
       prop_scale="0.1"
       scale_y_rel="false"
       spacing="0"
       normal_offset="0"
       tang_offset="0"
       prop_units="false"
       vertical_pattern="false"
       hide_knot="false"
       fuse_tolerance="0" /><inkscape:path-effect
       effect="skeletal"
       id="path-effect6006"
       is_visible="true"
       lpeversion="1"
       pattern="M 0,18.867925 C 0,8.4528302 8.4528302,0 18.867925,0 c 10.415094,0 18.867924,8.4528302 18.867924,18.867925 0,10.415094 -8.45283,18.867924 -18.867924,18.867924 C 8.4528302,37.735849 0,29.283019 0,18.867925 Z"
       copytype="single_stretched"
       prop_scale="0.1"
       scale_y_rel="false"
       spacing="0"
       normal_offset="0"
       tang_offset="0"
       prop_units="false"
       vertical_pattern="false"
       hide_knot="false"
       fuse_tolerance="0" /><inkscape:path-effect
       effect="skeletal"
       id="path-effect6002"
       is_visible="true"
       lpeversion="1"
       pattern="M 0,18.867925 C 0,8.4528302 8.4528302,0 18.867925,0 c 10.415094,0 18.867924,8.4528302 18.867924,18.867925 0,10.415094 -8.45283,18.867924 -18.867924,18.867924 C 8.4528302,37.735849 0,29.283019 0,18.867925 Z"
       copytype="single_stretched"
       prop_scale="0.1"
       scale_y_rel="false"
       spacing="0"
       normal_offset="0"
       tang_offset="0"
       prop_units="false"
       vertical_pattern="false"
       hide_knot="false"
       fuse_tolerance="0" /><inkscape:path-effect
       effect="skeletal"
       id="path-effect5998"
       is_visible="true"
       lpeversion="1"
       pattern="M 0,18.867925 C 0,8.4528302 8.4528302,0 18.867925,0 c 10.415094,0 18.867924,8.4528302 18.867924,18.867925 0,10.415094 -8.45283,18.867924 -18.867924,18.867924 C 8.4528302,37.735849 0,29.283019 0,18.867925 Z"
       copytype="single_stretched"
       prop_scale="0.1"
       scale_y_rel="false"
       spacing="0"
       normal_offset="0"
       tang_offset="0"
       prop_units="false"
       vertical_pattern="false"
       hide_knot="false"
       fuse_tolerance="0" /><inkscape:path-effect
       effect="skeletal"
       id="path-effect5994"
       is_visible="true"
       lpeversion="1"
       pattern="M 0,18.867925 C 0,8.4528302 8.4528302,0 18.867925,0 c 10.415094,0 18.867924,8.4528302 18.867924,18.867925 0,10.415094 -8.45283,18.867924 -18.867924,18.867924 C 8.4528302,37.735849 0,29.283019 0,18.867925 Z"
       copytype="single_stretched"
       prop_scale="0.1"
       scale_y_rel="false"
       spacing="0"
       normal_offset="0"
       tang_offset="0"
       prop_units="false"
       vertical_pattern="false"
       hide_knot="false"
       fuse_tolerance="0" /><inkscape:path-effect
       effect="skeletal"
       id="path-effect5986"
       is_visible="true"
       lpeversion="1"
       pattern="M 0,18.867925 C 0,8.4528302 8.4528302,0 18.867925,0 c 10.415094,0 18.867924,8.4528302 18.867924,18.867925 0,10.415094 -8.45283,18.867924 -18.867924,18.867924 C 8.4528302,37.735849 0,29.283019 0,18.867925 Z"
       copytype="single_stretched"
       prop_scale="0.1"
       scale_y_rel="false"
       spacing="0"
       normal_offset="0"
       tang_offset="0"
       prop_units="false"
       vertical_pattern="false"
       hide_knot="false"
       fuse_tolerance="0" /><inkscape:path-effect
       effect="skeletal"
       id="path-effect5982"
       is_visible="true"
       lpeversion="1"
       pattern="M 0,18.867925 C 0,8.4528302 8.4528302,0 18.867925,0 c 10.415094,0 18.867924,8.4528302 18.867924,18.867925 0,10.415094 -8.45283,18.867924 -18.867924,18.867924 C 8.4528302,37.735849 0,29.283019 0,18.867925 Z"
       copytype="single_stretched"
       prop_scale="0.1"
       scale_y_rel="false"
       spacing="0"
       normal_offset="0"
       tang_offset="0"
       prop_units="false"
       vertical_pattern="false"
       hide_knot="false"
       fuse_tolerance="0" /><inkscape:path-effect
       effect="skeletal"
       id="path-effect5970"
       is_visible="true"
       lpeversion="1"
       pattern="M 0,18.867925 C 0,8.4528302 8.4528302,0 18.867925,0 c 10.415094,0 18.867924,8.4528302 18.867924,18.867925 0,10.415094 -8.45283,18.867924 -18.867924,18.867924 C 8.4528302,37.735849 0,29.283019 0,18.867925 Z"
       copytype="single_stretched"
       prop_scale="0.1"
       scale_y_rel="false"
       spacing="0"
       normal_offset="0"
       tang_offset="0"
       prop_units="false"
       vertical_pattern="false"
       hide_knot="false"
       fuse_tolerance="0" /></defs><sodipodi:namedview
     id="namedview4"
     pagecolor="#505050"
     bordercolor="#ffffff"
     borderopacity="1"
     inkscape:pageshadow="0"
     inkscape:pageopacity="0"
     inkscape:pagecheckerboard="1"
     showgrid="false"
     inkscape:snap-nodes="false"
     inkscape:zoom="1.8294088"
     inkscape:cx="-63.955088"
     inkscape:cy="224.11612"
     inkscape:window-width="1920"
     inkscape:window-height="1132"
     inkscape:window-x="1920"
     inkscape:window-y="164"
     inkscape:window-maximized="0"
     inkscape:current-layer="g8"
     inkscape:showpageshadow="0"
     inkscape:deskcolor="#d1d1d1" /><g
     id="g8"
     inkscape:groupmode="layer"
     inkscape:label="trapdoor_carousel"
     transform="matrix(1.3333333,0,0,1.3333333,-859.06506,-28.022481)"><path
       style="fill:#1b1f23;fill-opacity:1;stroke:#f6f8fa;stroke-width:0.75;stroke-linecap:round;stroke-linejoin:round;stroke-dasharray:none;stroke-opacity:1;paint-order:stroke fill markers"
       d="m 685.54112,23.914881 c 1.04136,0.01791 1.33224,32.253694 0.6493,71.95487 -0.68294,39.701169 -2.08237,71.907879 -3.12372,71.889959 -1.04136,-0.0179 -1.33224,-32.25369 -0.6493,-71.954863 0.68294,-39.701175 2.08236,-71.907879 3.12372,-71.889966 z"
       id="path5968"
       inkscape:path-effect="#path-effect5970"
       inkscape:original-d="M 685.54112,23.914881 683.0667,167.75968" /><path
       style="fill:#1b1f23;fill-opacity:1;stroke:#f6f8fa;stroke-width:0.75;stroke-linecap:round;stroke-linejoin:round;stroke-dasharray:none;stroke-opacity:1;paint-order:stroke fill markers"
       d="m 677.48941,24.705288 c 1.04147,-0.0085 2.05309,20.344058 2.25808,45.42984 0.20498,25.085781 -0.47391,45.452162 -1.51538,45.460672 -1.04147,0.009 -2.05309,-20.344057 -2.25808,-45.429837 -0.20498,-25.085783 0.47391,-45.452165 1.51538,-45.460675 z"
       id="path5980"
       inkscape:path-effect="#path-effect5982"
       inkscape:original-d="m 677.48941,24.705288 0.7427,90.890482" /><path
       style="fill:#1b1f23;fill-opacity:1;stroke:#f6f8fa;stroke-width:0.75;stroke-linecap:round;stroke-linejoin:round;stroke-dasharray:none;stroke-opacity:1;paint-order:stroke fill markers"
       d="m 675.2964,22.732154 c 0.13944,-1.032132 2.93381,-1.50757 6.23743,-1.061245 3.30362,0.446326 5.87165,1.646234 5.7322,2.678366 -0.13944,1.032133 -2.93381,1.50757 -6.23743,1.061245 -3.30362,-0.446326 -5.87164,-1.646233 -5.7322,-2.678366 z"
       id="path5984"
       inkscape:path-effect="#path-effect5986"
       inkscape:original-d="m 675.2964,22.732154 11.96963,1.617121" /><path
       style="fill:#1b1f23;fill-opacity:1;stroke:#f6f8fa;stroke-width:0.75;stroke-linecap:round;stroke-linejoin:round;stroke-dasharray:none;stroke-opacity:1;paint-order:stroke fill markers"
       d="m 675.80937,113.61224 c 0.68984,0.7803 -5.22078,7.13399 -13.19335,14.18235 -7.97256,7.04836 -15.00292,12.13549 -15.69277,11.35519 -0.68984,-0.78029 5.22078,-7.13398 13.19335,-14.18235 7.97257,-7.04836 15.00293,-12.13549 15.69277,-11.35519 z"
       id="path5992"
       inkscape:path-effect="#path-effect5994"
       inkscape:original-d="m 675.80937,113.61224 -28.8861,25.53753" /><path
       style="fill:#1b1f23;fill-opacity:1;stroke:#f6f8fa;stroke-width:0.75;stroke-linecap:round;stroke-linejoin:round;stroke-dasharray:none;stroke-opacity:1;paint-order:stroke fill markers"
       d="m 645.73518,140.60127 c 0.90977,-0.002 1.4068,16.17467 1.03445,37.47305 1.23347,0.0717 2.47046,0.14735 3.72851,0.22687 -0.19692,-1.3534 -0.33794,-2.75603 -0.38899,-4.17998 -0.15606,-4.35277 0.54468,-8.50913 2.575,-12.09616 2.24592,-3.73596 5.88806,-6.17298 9.71739,-6.85704 4.01233,-0.66289 7.73593,0.4863 10.4123,2.26141 3.48888,2.23841 4.99745,5.69368 5.39148,8.33675 3.02048,0.32978 4.90689,0.81379 4.87047,1.13326 -0.0364,0.31936 -2.00755,0.36378 -5.81423,-0.0849 -0.68449,-2.21151 -2.49018,-5.05145 -5.88631,-7.04456 -2.27916,-1.2712 -5.34929,-2.01575 -8.36109,-1.35385 -2.8034,0.56689 -5.53599,2.62187 -7.19409,5.46865 -2.07042,3.32789 -3.01244,7.36271 -3.34906,11.81975 -0.10997,1.45619 -0.15257,2.91728 -0.15693,4.34565 -2.53891,-0.0401 -5.02491,-0.0817 -7.45015,-0.12527 -0.46549,-22.52798 -0.0385,-39.32166 0.87125,-39.32359 z"
       id="path5996"
       inkscape:path-effect="#path-effect5998"
       inkscape:original-d="m 645.73518,140.60127 0.0816,38.39832 5.58933,0.17607 c -2.02461,-29.26073 23.3868,-26.1338 26.32733,-12.88533 l 5.34233,0.6091"
       sodipodi:nodetypes="ccccc" /><path
       style="fill:#1b1f23;fill-opacity:1;stroke:#f6f8fa;stroke-width:0.75;stroke-linecap:round;stroke-linejoin:round;stroke-dasharray:none;stroke-opacity:1;paint-order:stroke fill markers"
       d="m 817.42562,21.714083 c 1.04149,0.0056 1.70401,33.976961 1.47883,75.828924 -0.22519,41.851963 -1.25322,75.814223 -2.29471,75.808613 -1.04149,-0.006 -1.70401,-33.97696 -1.47883,-75.828916 0.22519,-41.851963 1.25322,-75.814225 2.29471,-75.808621 z"
       id="path6000"
       inkscape:path-effect="#path-effect6002"
       inkscape:original-d="M 817.42562,21.714083 816.60974,173.35159" /><path
       style="fill:#1b1f23;fill-opacity:1;stroke:#f6f8fa;stroke-width:0.75;stroke-linecap:round;stroke-linejoin:round;stroke-dasharray:none;stroke-opacity:1;paint-order:stroke fill markers"
       d="m 821.96353,21.424988 c 1.02429,0.188619 1.71234,1.119621 1.53584,2.078129 -0.17651,0.958507 -1.15107,1.583344 -2.17536,1.394725 -1.02428,-0.18862 -1.71234,-1.119621 -1.53583,-2.078129 0.17651,-0.958508 1.15106,-1.583344 2.17535,-1.394725 z"
       id="path6004"
       inkscape:path-effect="#path-effect6006"
       inkscape:original-d="m 821.96353,21.424988 c -0.21317,1.157608 -0.42634,2.315216 -0.63951,3.472824" /><path
       style="fill:#1b1f23;fill-opacity:1;stroke:#f6f8fa;stroke-width:0.75;stroke-linecap:round;stroke-linejoin:round;stroke-dasharray:none;stroke-opacity:1;paint-order:stroke fill markers"
       d="m 822.55237,141.08109 c -1.04151,-0.002 -1.8249,-26.55227 -1.74864,-59.26305 0.0763,-32.710774 0.98343,-59.256678 2.02494,-59.25425 1.04151,0.0024 1.8249,26.552273 1.74864,59.263047 -0.0763,32.710773 -0.98343,59.256683 -2.02494,59.254253 z"
       id="path6008"
       inkscape:path-effect="#path-effect6010"
       inkscape:original-d="m 822.55237,141.08109 0.2763,-118.517291" /><path
       style="fill:#1b1f23;fill-opacity:1;stroke:#f6f8fa;stroke-width:0.75;stroke-linecap:round;stroke-linejoin:round;stroke-dasharray:none;stroke-opacity:1;paint-order:stroke fill markers"
       d="m 824.11861,141.55305 c -0.008,-0.11949 2.15616,-0.37208 6.47578,-0.57844 0.0957,20.88508 -0.27815,96.89045 -0.95729,199.09196 2.15857,-0.0353 -166.17553,2.60607 -164.01696,2.57076 -0.0399,6e-4 -19.47996,0.29216 -19.51982,0.29276 -0.10736,-4.43855 -0.40195,-16.63171 -0.50931,-21.07027 4.83702,0.71751 9.81218,1.08935 14.75265,1.4654 7.07775,1.06474 14.15779,1.97373 21.1403,2.8068 18.51992,2.20924 36.53395,3.89398 53.9962,5.12949 9.37547,0.66325 18.49761,1.18333 27.50048,1.50885 8.3078,0.30003 16.32496,0.44258 24.25759,0.25876 6.32146,-0.14968 12.36258,-0.42571 18.27076,-1.38989 2.08137,-0.34252 4.08222,-0.74514 5.95352,-1.39645 1.29029,-0.48153 2.45893,-0.9303 3.17539,-1.68156 0,0 1e-5,-2e-5 1e-5,-2e-5 1.14668,-1.08632 1.96351,-2.60069 2.64336,-4.20195 0,0 1e-5,-2e-5 1e-5,-2e-5 0.76673,-1.84534 1.27892,-3.82449 1.68194,-5.82707 0.75243,-3.73779 1.04858,-7.63274 1.31559,-11.42153 0.77642,-81.5646 1.57539,-133.60805 2.1616,-133.60495 0.58624,0.003 0.83458,52.05844 0.7478,133.70763 -0.23126,3.83477 -0.51122,7.88124 -1.27271,11.89541 -0.40287,2.12398 -0.95455,4.29405 -1.80454,6.40643 0,0 -10e-6,2e-5 -10e-6,2e-5 -0.72605,1.84037 -1.75831,3.70389 -3.30409,5.25786 0,0 -2e-5,10e-6 -2e-5,10e-6 -1.32402,1.24971 -2.87599,1.95082 -4.3117,2.42259 -2.13012,0.74799 -4.30466,1.21036 -6.46662,1.57243 -6.14245,1.03677 -12.3364,1.36632 -18.7047,1.54715 -8.02151,0.23173 -16.10919,0.1319 -24.45838,-0.13003 -9.05215,-0.28362 -18.21906,-0.7662 -27.62807,-1.39568 -17.52247,-1.1721 -35.60181,-2.80874 -54.18744,-4.98617 -7.00735,-0.82084 -14.12608,-1.72205 -21.25912,-2.7841 -4.18797,-0.99013 -8.48799,-2.01071 -12.74808,-3.40069 0.24659,4.69421 0.66552,12.66369 0.91211,17.35791 -0.0392,5.9e-4 19.16055,-0.2903 19.12137,-0.2897 2.39611,-0.0361 158.44736,-2.28993 160.84348,-2.32606 1.00654,-99.95583 1.89924,-175.69235 2.34671,-197.03928 -3.96852,0.32551 -6.14012,0.35113 -6.14779,0.23164 z"
       id="path6016"
       inkscape:path-effect="#path-effect6018"
       inkscape:original-d="m 824.11861,141.55305 6.31179,-0.40504 -1.65201,198.06562 -181.75081,2.73964 -0.71071,-19.21409 c 24.36725,5.64486 156.6093,19.47603 169.4055,6.92795 4.95191,-4.85589 5.62302,-16.5669 6.01114,-22.50516 l 0.7069,-133.65627" /><path
       style="fill:#1b1f23;fill-opacity:1;stroke:#f6f8fa;stroke-width:0.75;stroke-linecap:round;stroke-linejoin:round;stroke-dasharray:none;stroke-opacity:1;paint-order:stroke fill markers"
       d="m 816.47424,174.30829 c -0.17954,-1.02592 1.09486,-2.10707 2.84465,-2.41329 1.74979,-0.30622 3.31561,0.27789 3.49515,1.30381 0.17954,1.02592 -1.09486,2.10707 -2.84465,2.41329 -1.74978,0.30621 -3.31561,-0.27789 -3.49515,-1.30381 z"
       id="path6061"
       inkscape:path-effect="#path-effect6063"
       inkscape:original-d="m 816.47424,174.30829 6.33979,-1.10948" /><path
       style="fill:#1b1f23;fill-opacity:1;stroke:#f6f8fa;stroke-width:0.75;stroke-linecap:round;stroke-linejoin:round;stroke-dasharray:none;stroke-opacity:1;paint-order:stroke fill markers"
       d="m 758.83229,269.38948 c -0.64196,0.63864 -37.58413,-35.7145 -85.97576,-84.69343 0,0 3e-5,-2e-5 3e-5,-2e-5 0.80907,-0.50183 1.30549,-0.3392 1.24199,0.24946 0,0 -1e-5,2e-5 -1e-5,2e-5 -1.55817,1.34924 -2.78393,1.51846 -3.11802,1.13376 0,0 -10e-6,-1e-5 -10e-6,-1e-5 -2.90185,0.0227 -5.92665,-0.59586 -8.63294,-2.11062 -2.22861,-1.26439 -4.10875,-3.1099 -5.43323,-5.32264 -2.329,-3.85694 -3.07704,-8.75189 -1.61217,-13.2255 0.3393,-1.08188 0.86905,-2.15035 1.60628,-3.11 0.52858,-0.68804 1.16209,-1.31788 1.90528,-1.85597 1.9294,-1.2721 4.22206,-1.58443 6.28899,-1.09286 3.01938,0.7445 5.45825,2.50039 7.39901,4.35244 3.43078,3.30485 6.13355,7.16776 8.47476,10.97925 -0.19592,2.131 -1.37493,3.54307 -2.47706,4.41768 48.59741,48.70461 84.62958,85.91157 83.9849,86.54724 -0.64467,0.63567 -37.76787,-36.34919 -86.65126,-86.5065 0.98746,-1.37852 1.91446,-2.48765 1.72028,-3.4641 -2.20369,-3.3452 -4.61784,-6.61828 -7.59499,-9.20925 -1.80244,-1.59199 -3.67865,-3.04393 -5.68953,-3.44051 -1.17901,-0.2447 -2.47718,-0.11956 -3.3072,0.51886 -0.39426,0.24945 -0.74085,0.60003 -1.04512,1.01828 -0.42429,0.58322 -0.76452,1.2956 -1.03593,2.04126 -1.11968,3.26046 -0.50145,7.11717 1.25801,10.10334 0.99024,1.66157 2.40687,3.06671 4.05194,3.99893 2.01886,1.16465 4.46852,1.63855 6.90054,1.66121 0,0 2e-5,0 2e-5,0 0.76192,-0.33002 0.8714,0.0814 -0.0737,0.52668 0,0 2e-5,0 2e-5,0 0.27586,0.0756 0.97575,-0.39717 2.33607,-1.16882 0,0 5e-5,-3e-5 5e-5,-3e-5 49.55304,49.47458 86.12076,87.01321 85.4788,87.65185 z"
       id="path6310"
       inkscape:path-effect="#path-effect6312"
       inkscape:original-d="m 758.83229,269.38948 -85.72728,-86.17264 c -0.84309,0.41261 0.074,1.14091 -2.06922,1.01269 -24.9707,0 -14.95746,-45.54999 8.22913,-9.03901 -10e-4,2.38912 -1.23499,3.0097 -2.09867,3.94089 l 85.31806,86.52685" /><path
       style="fill:#1b1f23;fill-opacity:1;stroke:#f6f8fa;stroke-width:0.75;stroke-linecap:round;stroke-linejoin:round;stroke-dasharray:none;stroke-opacity:1;paint-order:stroke fill markers"
       d="m 688.39622,22.849807 c 0.0137,-1.041419 28.38004,-1.513232 63.3177,-1.053155 34.93765,0.460078 63.28172,1.678684 63.268,2.720103 -0.0137,1.041419 -28.38004,1.513233 -63.31769,1.053155 -34.93766,-0.460078 -63.28172,-1.678684 -63.26801,-2.720103 z"
       id="path6584"
       inkscape:path-effect="#path-effect6586"
       inkscape:original-d="M 688.39622,22.849807 814.9819,24.516755" /><path
       style="fill:#1b1f23;fill-opacity:1;stroke:#f6f8fa;stroke-width:0.75;stroke-linecap:round;stroke-linejoin:round;stroke-dasharray:none;stroke-opacity:1;paint-order:stroke fill markers"
       d="m 813.68474,142.73004 c -0.01,1.04146 -28.54997,1.62244 -63.70608,1.29682 -35.15611,-0.32562 -63.68078,-1.43514 -63.67114,-2.4766 0.01,-1.04146 28.54998,-1.62244 63.70609,-1.29682 35.15611,0.32562 63.68078,1.43514 63.67113,2.4766 z"
       id="path6588"
       inkscape:path-effect="#path-effect6590"
       inkscape:original-d="m 813.68474,142.73004 -127.3772,-1.17978" /><path
       style="fill:#1b1f23;fill-opacity:1;stroke:#f6f8fa;stroke-width:0.75;stroke-linecap:round;stroke-linejoin:round;stroke-dasharray:none;stroke-opacity:1;paint-order:stroke fill markers"
       d="m 651.4471,338.06 c -0.65555,-0.80932 0.94744,-3.19553 3.57811,-5.32636 2.63066,-2.13083 5.29773,-3.20336 5.95328,-2.39404 0.65554,0.80932 -0.94745,3.19553 -3.57811,5.32636 -2.63066,2.13083 -5.29773,3.20336 -5.95328,2.39404 z"
       id="path6629"
       inkscape:path-effect="#path-effect6631"
       inkscape:original-d="m 651.4471,338.06 9.53137,-7.72039" /><path
       style="fill:#1b1f23;fill-opacity:1;stroke:#f6f8fa;stroke-width:0.75;stroke-linecap:round;stroke-linejoin:round;stroke-dasharray:none;stroke-opacity:1;paint-order:stroke fill markers"
       d="m 667.22109,338.12646 c -0.50937,-0.90845 1.71321,-3.12374 4.96112,-4.94484 3.24791,-1.8211 6.29729,-2.5618 6.80666,-1.65335 0.50937,0.90846 -1.71321,3.12374 -4.96112,4.94484 -3.24791,1.8211 -6.29729,2.5618 -6.80666,1.65335 z"
       id="path6633"
       inkscape:path-effect="#path-effect6635"
       inkscape:original-d="m 667.22109,338.12646 11.76777,-6.59818" /><path
       style="fill:#1b1f23;fill-opacity:1;stroke:#f6f8fa;stroke-width:0.75;stroke-linecap:round;stroke-linejoin:round;stroke-dasharray:none;stroke-opacity:1;paint-order:stroke fill markers"
       d="m 818.7537,334.46687 c -0.62156,-0.83571 0.68751,-2.86278 2.92204,-4.52472 2.23452,-1.66195 4.55251,-2.33252 5.17407,-1.49681 0.62156,0.8357 -0.68751,2.86278 -2.92204,4.52472 -2.23453,1.66195 -4.55251,2.33252 -5.17407,1.49681 z"
       id="path6637"
       inkscape:path-effect="#path-effect6639"
       inkscape:original-d="m 818.7537,334.46687 8.09608,-6.02151" /><path
       style="fill:#1b1f23;fill-opacity:1;stroke:#f6f8fa;stroke-width:0.75;stroke-linecap:round;stroke-linejoin:round;stroke-dasharray:none;stroke-opacity:1;paint-order:stroke fill markers"
       d="m 827.9936,146.71455 c 0.96506,0.39167 -0.18838,5.48148 -2.57464,11.36119 -2.38626,5.87971 -5.10617,10.33378 -6.07123,9.94211 -0.96506,-0.39166 0.18838,-5.48148 2.57464,-11.36119 2.38626,-5.87971 5.10617,-10.33378 6.07123,-9.94211 z"
       id="path6645"
       inkscape:path-effect="#path-effect6647"
       inkscape:original-d="m 827.9936,146.71455 -8.64587,21.3033" /><path
       style="fill:#1b1f23;fill-opacity:1;stroke:#f6f8fa;stroke-width:0.75;stroke-linecap:round;stroke-linejoin:round;stroke-dasharray:none;stroke-opacity:1;paint-order:stroke fill markers"
       d="m 673.20996,123.51787 c 0.83118,0.6276 -3.03745,7.15395 -8.63535,14.56775 -5.59789,7.4138 -10.81569,12.92145 -11.64687,12.29385 -0.83119,-0.62759 3.03745,-7.15394 8.63534,-14.56775 5.5979,-7.4138 10.8157,-12.92145 11.64688,-12.29385 z"
       id="path6649"
       inkscape:path-effect="#path-effect6651"
       inkscape:original-d="m 673.20996,123.51787 -20.28222,26.8616" /><path
       style="fill:#1b1f23;fill-opacity:1;stroke:#f6f8fa;stroke-width:0.75;stroke-linecap:round;stroke-linejoin:round;stroke-dasharray:none;stroke-opacity:1;paint-order:stroke fill markers"
       d="m 677.3673,132.93079 c 0.82278,0.63857 -0.88272,4.21472 -3.80691,7.98248 -2.9242,3.76775 -5.96523,6.30738 -6.78801,5.66881 -0.82278,-0.63857 0.88271,-4.21472 3.80691,-7.98247 2.9242,-3.76776 5.96523,-6.30739 6.78801,-5.66882 z"
       id="path6653"
       inkscape:path-effect="#path-effect6655"
       inkscape:original-d="m 677.3673,132.93079 -10.59492,13.65129" /><path
       style="fill:#1b1f23;fill-opacity:1;stroke:#f6f8fa;stroke-width:0.75;stroke-linecap:round;stroke-linejoin:round;stroke-dasharray:none;stroke-opacity:1;paint-order:stroke fill markers"
       d="m 679.01228,143.67369 c 0.8745,0.56569 0.19238,3.17645 -1.52257,5.82761 -1.71496,2.65115 -3.81654,4.34371 -4.69103,3.77802 -0.8745,-0.56568 -0.19239,-3.17645 1.52257,-5.82761 1.71495,-2.65115 3.81653,-4.34371 4.69103,-3.77802 z"
       id="path6657"
       inkscape:path-effect="#path-effect6659"
       inkscape:original-d="m 679.01228,143.67369 -6.21359,9.60561" /><path
       style="fill:#1b1f23;fill-opacity:1;stroke:#f6f8fa;stroke-width:0.75;stroke-linecap:round;stroke-linejoin:round;stroke-dasharray:none;stroke-opacity:1;paint-order:stroke fill markers"
       d="m 664.60353,165.77393 c 0.99232,0.31631 0.96194,3.19489 -0.0678,6.4254 -1.02975,3.23052 -2.67084,5.59568 -3.66316,5.27937 -0.99231,-0.31631 -0.96194,-3.19489 0.0678,-6.4254 1.02974,-3.23052 2.67083,-5.59568 3.66315,-5.27937 z"
       id="path6698"
       inkscape:path-effect="#path-effect6700"
       inkscape:original-d="m 664.60353,165.77393 -3.73095,11.70475" /><path
       style="fill:#1b1f23;fill-opacity:1;stroke:#f6f8fa;stroke-width:0.75;stroke-linecap:round;stroke-linejoin:round;stroke-dasharray:none;stroke-opacity:1;paint-order:stroke fill markers"
       d="m 671.29595,172.18902 c 0.91327,0.50068 0.816,2.43645 -0.21711,4.32092 -1.03312,1.88447 -2.6128,3.00754 -3.52607,2.50686 -0.91327,-0.50067 -0.816,-2.43645 0.21712,-4.32092 1.03311,-1.88446 2.61279,-3.00754 3.52606,-2.50686 z"
       id="path6702"
       inkscape:path-effect="#path-effect6704"
       inkscape:original-d="m 671.29595,172.18902 -3.74317,6.82777" /><path
       style="fill:#1b1f23;fill-opacity:1;stroke:#f6f8fa;stroke-width:0.75;stroke-linecap:round;stroke-linejoin:round;stroke-dasharray:none;stroke-opacity:1;paint-order:stroke fill markers"
       d="m 757.77909,268.64395 c 0.40585,0.2405 -0.74763,2.72372 0.74794,5.67766 0,0 0,0 0,0 0.75756,1.53828 2.07719,3.01785 4.02737,4.33606 1.5749,1.02374 3.51389,1.88596 5.50717,1.98038 1.50768,0.0725 3.15817,-0.34684 4.25216,-1.34325 0.0747,-0.0681 0.14649,-0.13857 0.2151,-0.2115 0.81179,-0.54143 0.88496,-2.25109 1.27548,-3.99693 0.53243,-2.959 -0.90013,-5.91637 -2.64832,-7.58699 0,0 0,0 0,0 -1.84319,-1.80114 -4.27784,-2.28632 -5.81123,-2.36533 -1.60588,-0.0827 -2.59799,0.15846 -2.72441,-0.11742 -0.10044,-0.2192 0.62612,-1.08391 2.54546,-1.55044 1.7954,-0.43641 4.97426,-0.46205 7.90903,1.74676 0,0 0,0 0,0 2.6664,2.03183 4.92898,5.85039 4.36815,10.4031 -0.10866,1.67717 -0.44605,4.05835 -2.24618,6.13523 -0.13257,0.12825 -0.26859,0.25203 -0.40786,0.37129 -2.04697,1.75279 -4.64337,2.41046 -7.0179,2.17483 -2.87276,-0.29222 -5.30756,-1.52173 -7.14873,-2.99347 -2.2954,-1.78094 -3.73354,-3.97644 -4.39595,-6.08797 0,0 0,-10e-6 0,-10e-6 -1.37781,-4.4377 1.14687,-6.8125 1.55272,-6.572 z"
       id="path7573"
       inkscape:path-effect="#path-effect7575"
       inkscape:original-d="m 757.77909,268.64395 c -4.72266,7.96954 9.51946,18.33761 16.08373,11.77334 1.30137,-1.30137 1.5127,-3.36151 1.76083,-5.06608 1.02156,-7.01767 -6.04242,-13.52425 -13.00329,-10.33459" /><path
       style="fill:#1b1f23;fill-opacity:1;stroke:#f6f8fa;stroke-width:0.75;stroke-linecap:round;stroke-linejoin:round;stroke-dasharray:none;stroke-opacity:1;paint-order:stroke fill markers"
       d="m 762.05433,271.77273 c -0.19236,-1.00156 1.79377,-2.28576 4.45592,-2.87832 2.70908,-0.603 5.08595,-0.22236 5.27919,0.82212 0.18552,1.00275 -1.80689,2.27111 -4.45906,2.86168 -2.69938,0.60109 -5.07569,0.23774 -5.27605,-0.80548 z"
       id="path7577"
       inkscape:path-effect="#path-effect7579"
       inkscape:original-d="m 762.05433,271.77273 c 3.25604,-0.62535 6.48749,-1.45535 9.73507,-2.05619" /><path
       style="fill:#1b1f23;fill-opacity:1;stroke:#f6f8fa;stroke-width:0.75;stroke-linecap:round;stroke-linejoin:round;stroke-dasharray:none;stroke-opacity:1;paint-order:stroke fill markers"
       d="m 764.13177,275.8139 c 0.23064,-1.04723 2.31605,-1.37083 4.50097,-1.15906 2.05535,0.1992 3.99603,0.76955 4.17636,1.72493 0.1968,1.04265 -1.74936,2.26785 -4.51422,2.03593 -2.66983,-0.22395 -4.37569,-1.63655 -4.16311,-2.6018 z"
       id="path7581"
       inkscape:path-effect="#path-effect7583"
       inkscape:original-d="m 764.13177,275.8139 c 2.825,0.62216 5.80848,1.10737 8.67733,0.56587" /><path
       style="fill:#1b1f23;fill-opacity:1;stroke:#f6f8fa;stroke-width:0.75;stroke-linecap:round;stroke-linejoin:round;stroke-dasharray:none;stroke-opacity:1;paint-order:stroke fill markers"
       d="m 765.83013,244.78124 c 1.08758,-0.099 2.03693,2.16501 2.18735,4.95055 0.14378,2.66263 -0.39236,4.95297 -1.35965,5.12884 -1.07202,0.19492 -2.24561,-2.00861 -2.41058,-4.92015 -0.15854,-2.79812 0.60005,-5.06977 1.58288,-5.15924 z"
       id="path7622"
       inkscape:path-effect="#path-effect7624"
       inkscape:original-d="m 765.83013,244.78124 c 0.30549,3.356 0.22513,6.76532 0.82769,10.07936" /><path
       style="fill:#1b1f23;fill-opacity:1;stroke:#f6f8fa;stroke-width:0.75;stroke-linecap:round;stroke-linejoin:round;stroke-dasharray:none;stroke-opacity:1;paint-order:stroke fill markers"
       d="m 766.20993,255.47811 c 0.0192,-1.04969 2.3353,-1.82072 5.0954,-1.91613 2.73731,-0.0946 5.08949,0.48379 5.20988,1.50616 0.12271,1.04198 -2.11978,2.16074 -5.07812,2.26514 -2.93821,0.10369 -5.24602,-0.82489 -5.22716,-1.85517 z"
       id="path7626"
       inkscape:path-effect="#path-effect7628"
       inkscape:original-d="m 766.20993,255.47811 c 3.54032,0.0648 6.90033,-0.009 10.30527,-0.40997" /><path
       style="fill:#1b1f23;fill-opacity:1;stroke:#f6f8fa;stroke-width:0.75;stroke-linecap:round;stroke-linejoin:round;stroke-dasharray:none;stroke-opacity:1;paint-order:stroke fill markers"
       d="m 776.01851,244.74128 c 1.02789,-0.0243 1.9531,2.15284 2.04115,4.88566 0.089,2.76267 -0.73467,5.00822 -1.78907,5.00822 -1.02794,0 -1.89528,-2.18866 -1.9827,-4.88634 -0.0884,-2.72818 0.67634,-4.98263 1.73062,-5.00754 z"
       id="path7630"
       inkscape:path-effect="#path-effect7632"
       inkscape:original-d="m 776.01851,244.74128 c 0.078,3.30086 0.25208,6.59041 0.25208,9.89387" /><path
       style="fill:#1b1f23;fill-opacity:1;stroke:#f6f8fa;stroke-width:0.75;stroke-linecap:round;stroke-linejoin:round;stroke-dasharray:none;stroke-opacity:1;paint-order:stroke fill markers"
       d="m 766.01019,244.69557 c -0.0697,-1.02548 2.24913,-2.0776 5.26738,-2.12773 3.04265,-0.0505 5.40404,0.96081 5.33141,2.00952 -0.0709,1.02416 -2.45263,1.71548 -5.26715,1.76465 -2.84227,0.0497 -5.26026,-0.59678 -5.33164,-1.64644 z"
       id="path7634"
       inkscape:path-effect="#path-effect7636"
       inkscape:original-d="m 766.01019,244.69557 c 3.32497,-0.2261 7.72194,-0.31745 10.59877,-0.11821" /><path
       style="fill:#1b1f23;fill-opacity:1;stroke:#f6f8fa;stroke-width:0.75;stroke-linecap:round;stroke-linejoin:round;stroke-dasharray:none;stroke-opacity:1;paint-order:stroke fill markers"
       d="m 766.32367,244.067 c -0.76758,-0.0976 -1.49285,-2.86365 0.0481,-6.7625 0.30294,-1.22661 1.31546,-2.86836 3.68237,-3.61114 0.38858,-0.0508 0.76384,-0.0506 1.11924,-0.003 0.62177,0.0837 1.16759,0.3109 1.61138,0.64452 0.91892,0.69963 1.47228,1.49639 1.79068,2.19118 1.08946,2.21602 1.31015,4.35643 1.26985,5.71389 -0.0421,1.4178 -0.33736,2.25265 -0.76099,2.31949 -0.43409,0.0685 -0.92369,-0.65834 -1.49133,-1.87163 -0.49336,-1.05451 -1.24889,-3.01663 -2.17045,-4.37742 -0.3163,-0.42707 -0.56239,-0.79636 -0.77901,-0.88507 -0.0403,-0.002 -0.0634,-0.0194 -0.0337,-0.026 0.0164,-0.004 0.049,-0.004 0.10211,0.005 -0.16681,-0.29371 -0.54928,0.62251 -1.22859,1.41422 -1.67331,2.70584 -2.39208,5.3458 -3.15966,5.24822 z"
       id="path7638"
       inkscape:path-effect="#path-effect7640"
       inkscape:original-d="m 766.32367,244.067 c 1.26363,-9.94026 6.64115,-12.93874 8.76065,0.49269"
       sodipodi:nodetypes="cc" /><path
       style="fill:#1b1f23;fill-opacity:1;stroke:#f6f8fa;stroke-width:0.75;stroke-linecap:round;stroke-linejoin:round;stroke-dasharray:none;stroke-opacity:1;paint-order:stroke fill markers"
       d="m 771.47334,246.62664 c 0.96088,0.15174 1.81607,0.73134 1.90182,1.08498 0.1272,0.52453 -0.45947,1.43465 -1.45232,1.77047 -0.95375,0.32259 -2.06976,0.022 -2.25005,-1.05539 -0.174,-1.03985 0.77179,-1.96252 1.80055,-1.80006 z"
       id="path7642"
       inkscape:path-effect="#path-effect7644"
       inkscape:original-d="m 771.47334,246.62664 c -0.17817,1.12823 0.18685,2.07891 0.44949,2.85542" /><path
       style="fill:#1b1f23;fill-opacity:1;stroke:#f6f8fa;stroke-width:0.75;stroke-linecap:round;stroke-linejoin:round;stroke-dasharray:none;stroke-opacity:1;paint-order:stroke fill markers"
       d="m 770.51591,251.1474 c 0,-1.04151 0.48831,-1.88679 1.08998,-1.88679 0.60167,0 1.08998,0.84528 1.08998,1.88679 0,1.04151 -0.48831,1.88679 -1.08998,1.88679 -0.60167,0 -1.08998,-0.84528 -1.08998,-1.88679 z"
       id="path7646"
       inkscape:path-effect="#path-effect7648"
       inkscape:original-d="m 770.51591,251.1474 c 0.72665,0 1.4533,0 2.17995,0" /></g></svg>
